G04 (created by PCBNEW (22-Jun-2014 BZR 4027)-stable) date Sun 25 Feb 2018 06:50:33 PM CST*
%MOIN*%
G04 Gerber Fmt 3.4, Leading zero omitted, Abs format*
%FSLAX34Y34*%
G01*
G70*
G90*
G04 APERTURE LIST*
%ADD10C,0.00590551*%
%ADD11R,0.069X0.069*%
%ADD12O,0.069X0.069*%
%ADD13O,0.059X0.059*%
%ADD14C,0.059*%
%ADD15R,0.059X0.059*%
%ADD16C,0.16*%
%ADD17C,0.069*%
%ADD18C,0.23622*%
%ADD19R,0.06X0.06*%
%ADD20C,0.06*%
%ADD21C,0.03*%
%ADD22C,0.02*%
%ADD23C,0.01*%
%ADD24C,0.04*%
%ADD25C,0.08*%
G04 APERTURE END LIST*
G54D10*
G54D11*
X59500Y-55750D03*
G54D12*
X59500Y-54750D03*
X59500Y-53750D03*
G54D11*
X60250Y-59750D03*
G54D12*
X61250Y-59750D03*
X62250Y-59750D03*
G54D13*
X50750Y-60250D03*
X50750Y-64250D03*
X49750Y-64250D03*
X49750Y-60250D03*
G54D14*
X56500Y-66750D03*
X56500Y-64750D03*
X56250Y-51750D03*
X56250Y-49750D03*
X51250Y-59250D03*
X49250Y-59250D03*
G54D15*
X55250Y-64250D03*
G54D13*
X54250Y-64250D03*
X53250Y-64250D03*
X52250Y-64250D03*
X52250Y-67250D03*
X53250Y-67250D03*
X55250Y-67250D03*
X54250Y-67250D03*
G54D15*
X51750Y-58000D03*
G54D13*
X51750Y-57000D03*
X51750Y-56000D03*
X51750Y-55000D03*
X48750Y-55000D03*
X48750Y-56000D03*
X48750Y-58000D03*
X48750Y-57000D03*
G54D15*
X55000Y-49250D03*
G54D13*
X54000Y-49250D03*
X53000Y-49250D03*
X52000Y-49250D03*
X52000Y-52250D03*
X53000Y-52250D03*
X55000Y-52250D03*
X54000Y-52250D03*
G54D16*
X66250Y-58250D03*
X56250Y-58250D03*
G54D11*
X61000Y-66500D03*
G54D17*
X63000Y-66500D03*
G54D11*
X60000Y-50000D03*
G54D17*
X58000Y-50000D03*
G54D18*
X49250Y-49750D03*
X49250Y-66750D03*
X66250Y-49750D03*
X66250Y-66750D03*
G54D14*
X63250Y-61250D03*
X63250Y-63250D03*
X62250Y-61250D03*
X62250Y-63250D03*
G54D13*
X58500Y-65000D03*
X58500Y-61000D03*
G54D15*
X63250Y-50000D03*
G54D13*
X62250Y-50000D03*
G54D14*
X59500Y-66500D03*
X57500Y-66500D03*
X61250Y-53500D03*
X61250Y-55500D03*
X48750Y-63250D03*
X48750Y-61250D03*
G54D19*
X51750Y-53500D03*
G54D20*
X50750Y-53500D03*
X49750Y-53500D03*
X48750Y-53500D03*
G54D11*
X59500Y-65000D03*
G54D12*
X59500Y-61000D03*
G54D11*
X62250Y-53500D03*
G54D12*
X62250Y-57500D03*
G54D21*
X59500Y-53750D02*
X61000Y-53750D01*
X61000Y-53750D02*
X61250Y-53500D01*
G54D22*
X51750Y-53500D02*
X51250Y-53000D01*
X56000Y-51500D02*
X56250Y-51750D01*
X51750Y-51500D02*
X56000Y-51500D01*
X51250Y-52000D02*
X51750Y-51500D01*
X51250Y-53000D02*
X51250Y-52000D01*
G54D23*
X48750Y-64000D02*
X48250Y-63500D01*
X52250Y-67250D02*
X52250Y-66750D01*
X50250Y-64750D02*
X52250Y-66750D01*
X49500Y-64750D02*
X50250Y-64750D01*
X48750Y-64000D02*
X49500Y-64750D01*
X48250Y-63500D02*
X48250Y-58250D01*
X49250Y-57500D02*
X50750Y-57500D01*
X48750Y-57500D02*
X49250Y-57500D01*
X48500Y-57500D02*
X48750Y-57500D01*
X48250Y-57750D02*
X48500Y-57500D01*
X48250Y-58250D02*
X48250Y-57750D01*
X48750Y-56000D02*
X49250Y-56000D01*
X51250Y-58000D02*
X51750Y-58000D01*
X49250Y-56000D02*
X50750Y-57500D01*
X50750Y-57500D02*
X51250Y-58000D01*
G54D21*
X51750Y-58000D02*
X51750Y-58750D01*
X51750Y-58750D02*
X51250Y-59250D01*
X55000Y-52250D02*
X55000Y-54750D01*
X55000Y-54750D02*
X51750Y-58000D01*
X59500Y-53750D02*
X57500Y-51750D01*
X57500Y-51750D02*
X56250Y-51750D01*
X55000Y-52250D02*
X55750Y-52250D01*
X55750Y-52250D02*
X56250Y-51750D01*
G54D22*
X54000Y-52250D02*
X54000Y-54750D01*
X54000Y-54750D02*
X51750Y-57000D01*
G54D23*
X53250Y-67250D02*
X54250Y-67250D01*
G54D22*
X55250Y-64250D02*
X55750Y-63750D01*
X59500Y-62250D02*
X59500Y-61000D01*
X58000Y-63750D02*
X59500Y-62250D01*
X55750Y-63750D02*
X58000Y-63750D01*
X60250Y-59750D02*
X60250Y-60250D01*
X60250Y-60250D02*
X59500Y-61000D01*
X50750Y-60250D02*
X52500Y-62000D01*
X52500Y-62000D02*
X52500Y-63250D01*
X53000Y-63500D02*
X52750Y-63500D01*
X54500Y-63500D02*
X53000Y-63500D01*
X54500Y-63500D02*
X55250Y-64250D01*
X52750Y-63500D02*
X52500Y-63250D01*
X48750Y-63250D02*
X49750Y-64250D01*
X49750Y-64250D02*
X50750Y-64250D01*
X50750Y-64250D02*
X50750Y-64500D01*
X50750Y-64500D02*
X51750Y-65500D01*
X53000Y-65500D02*
X51750Y-65500D01*
X53000Y-65500D02*
X54250Y-64250D01*
X50250Y-59750D02*
X50250Y-59000D01*
X51500Y-64500D02*
X52000Y-65000D01*
X51500Y-63250D02*
X51500Y-64500D01*
X50250Y-62000D02*
X51500Y-63250D01*
X53250Y-64250D02*
X52500Y-65000D01*
X52000Y-65000D02*
X52500Y-65000D01*
X50250Y-60750D02*
X50250Y-62000D01*
G54D23*
X50250Y-60750D02*
X50250Y-59750D01*
G54D22*
X49250Y-58000D02*
X48750Y-58000D01*
X50250Y-59000D02*
X49250Y-58000D01*
X51750Y-55000D02*
X52500Y-54250D01*
X52500Y-52750D02*
X52000Y-52250D01*
X52500Y-54250D02*
X52500Y-52750D01*
X53000Y-52250D02*
X53000Y-54750D01*
X53000Y-54750D02*
X51750Y-56000D01*
X50750Y-53250D02*
X50750Y-52500D01*
X50750Y-51750D02*
X52000Y-50500D01*
X52000Y-50500D02*
X52750Y-50500D01*
X52750Y-50500D02*
X54000Y-49250D01*
X50750Y-52500D02*
X50750Y-51750D01*
X49750Y-53250D02*
X49750Y-52500D01*
X49750Y-51750D02*
X51500Y-50000D01*
X51500Y-50000D02*
X52250Y-50000D01*
X52250Y-50000D02*
X53000Y-49250D01*
X49750Y-52500D02*
X49750Y-51750D01*
G54D21*
X62250Y-53500D02*
X62250Y-54500D01*
G54D24*
X63250Y-50000D02*
X63250Y-51500D01*
X63250Y-51500D02*
X63500Y-51750D01*
G54D21*
X56500Y-66750D02*
X57250Y-67500D01*
X57250Y-67500D02*
X61000Y-67500D01*
X61000Y-67500D02*
X61500Y-67500D01*
X61500Y-67500D02*
X62000Y-67000D01*
X62000Y-67000D02*
X62000Y-66500D01*
X62000Y-66500D02*
X62000Y-66000D01*
X62000Y-66000D02*
X64000Y-64000D01*
X64000Y-64000D02*
X64000Y-62250D01*
X64000Y-62250D02*
X64000Y-62000D01*
X64000Y-62000D02*
X63250Y-61250D01*
X61250Y-54500D02*
X60000Y-55750D01*
X60000Y-55750D02*
X59500Y-55750D01*
X61250Y-54500D02*
X62250Y-54500D01*
X62250Y-54500D02*
X64000Y-54500D01*
X63250Y-61250D02*
X63250Y-60750D01*
X63250Y-60750D02*
X62250Y-59750D01*
X55250Y-67250D02*
X55750Y-66750D01*
X55750Y-66750D02*
X56500Y-66750D01*
X60000Y-50000D02*
X60750Y-50750D01*
G54D25*
X60750Y-50750D02*
X61750Y-51750D01*
X64000Y-58000D02*
X63000Y-59000D01*
G54D21*
X63000Y-59000D02*
X62250Y-59750D01*
G54D25*
X64000Y-57250D02*
X64000Y-57500D01*
X64000Y-57500D02*
X64000Y-58000D01*
X63500Y-51750D02*
X64000Y-52250D01*
X63000Y-51750D02*
X63500Y-51750D01*
X64000Y-52250D02*
X64000Y-54500D01*
X64000Y-54500D02*
X64000Y-56750D01*
X64000Y-56750D02*
X64000Y-57250D01*
X61750Y-51750D02*
X63000Y-51750D01*
G54D21*
X61250Y-59750D02*
X61250Y-58500D01*
X61250Y-58500D02*
X62250Y-57500D01*
G54D22*
X59500Y-65000D02*
X61000Y-66500D01*
X58500Y-65000D02*
X59500Y-65000D01*
G54D21*
X61000Y-66500D02*
X59500Y-66500D01*
X62250Y-61250D02*
X61250Y-61250D01*
X61250Y-59750D02*
X61250Y-60750D01*
G54D25*
X61250Y-60750D02*
X61250Y-61250D01*
X61250Y-61250D02*
X61250Y-61500D01*
X61250Y-61500D02*
X61250Y-64000D01*
X61250Y-64000D02*
X61250Y-65000D01*
G54D21*
X61250Y-65500D02*
X61250Y-66250D01*
X61250Y-66250D02*
X61000Y-66500D01*
G54D25*
X61250Y-65000D02*
X61250Y-65500D01*
M02*
