G04 (created by PCBNEW (2013-07-07 BZR 4022)-stable) date 3/25/2015 9:11:50 PM*
%MOIN*%
G04 Gerber Fmt 3.4, Leading zero omitted, Abs format*
%FSLAX34Y34*%
G01*
G70*
G90*
G04 APERTURE LIST*
%ADD10C,0.00590551*%
%ADD11C,0.005*%
%ADD12C,0.006*%
%ADD13C,0.008*%
%ADD14C,0.01*%
%ADD15C,0.0001*%
%ADD16C,0.012*%
G04 APERTURE END LIST*
G54D10*
G54D11*
X52565Y-54232D02*
X52363Y-54232D01*
X52339Y-54220D01*
X52327Y-54208D01*
X52315Y-54184D01*
X52315Y-54148D01*
X52327Y-54124D01*
X52410Y-54232D02*
X52398Y-54208D01*
X52398Y-54160D01*
X52410Y-54136D01*
X52422Y-54124D01*
X52446Y-54113D01*
X52517Y-54113D01*
X52541Y-54124D01*
X52553Y-54136D01*
X52565Y-54160D01*
X52565Y-54208D01*
X52553Y-54232D01*
X52398Y-54351D02*
X52565Y-54351D01*
X52648Y-54351D02*
X52636Y-54339D01*
X52625Y-54351D01*
X52636Y-54363D01*
X52648Y-54351D01*
X52625Y-54351D01*
X52565Y-54434D02*
X52565Y-54529D01*
X52648Y-54470D02*
X52434Y-54470D01*
X52410Y-54482D01*
X52398Y-54505D01*
X52398Y-54529D01*
X52398Y-54613D02*
X52648Y-54613D01*
X52398Y-54720D02*
X52529Y-54720D01*
X52553Y-54708D01*
X52565Y-54684D01*
X52565Y-54648D01*
X52553Y-54624D01*
X52541Y-54613D01*
X52565Y-54946D02*
X52398Y-54946D01*
X52565Y-54839D02*
X52434Y-54839D01*
X52410Y-54851D01*
X52398Y-54874D01*
X52398Y-54910D01*
X52410Y-54934D01*
X52422Y-54946D01*
X52398Y-55065D02*
X52648Y-55065D01*
X52553Y-55065D02*
X52565Y-55089D01*
X52565Y-55136D01*
X52553Y-55160D01*
X52541Y-55172D01*
X52517Y-55184D01*
X52446Y-55184D01*
X52422Y-55172D01*
X52410Y-55160D01*
X52398Y-55136D01*
X52398Y-55089D01*
X52410Y-55065D01*
X52422Y-55291D02*
X52410Y-55303D01*
X52398Y-55291D01*
X52410Y-55279D01*
X52422Y-55291D01*
X52398Y-55291D01*
X52410Y-55517D02*
X52398Y-55494D01*
X52398Y-55446D01*
X52410Y-55422D01*
X52422Y-55410D01*
X52446Y-55398D01*
X52517Y-55398D01*
X52541Y-55410D01*
X52553Y-55422D01*
X52565Y-55446D01*
X52565Y-55494D01*
X52553Y-55517D01*
X52398Y-55660D02*
X52410Y-55636D01*
X52422Y-55624D01*
X52446Y-55613D01*
X52517Y-55613D01*
X52541Y-55624D01*
X52553Y-55636D01*
X52565Y-55660D01*
X52565Y-55696D01*
X52553Y-55720D01*
X52541Y-55732D01*
X52517Y-55744D01*
X52446Y-55744D01*
X52422Y-55732D01*
X52410Y-55720D01*
X52398Y-55696D01*
X52398Y-55660D01*
X52398Y-55851D02*
X52565Y-55851D01*
X52541Y-55851D02*
X52553Y-55863D01*
X52565Y-55886D01*
X52565Y-55922D01*
X52553Y-55946D01*
X52529Y-55958D01*
X52398Y-55958D01*
X52529Y-55958D02*
X52553Y-55970D01*
X52565Y-55994D01*
X52565Y-56029D01*
X52553Y-56053D01*
X52529Y-56065D01*
X52398Y-56065D01*
X52660Y-56363D02*
X52339Y-56148D01*
X52565Y-56446D02*
X52315Y-56446D01*
X52553Y-56446D02*
X52565Y-56470D01*
X52565Y-56517D01*
X52553Y-56541D01*
X52541Y-56553D01*
X52517Y-56565D01*
X52446Y-56565D01*
X52422Y-56553D01*
X52410Y-56541D01*
X52398Y-56517D01*
X52398Y-56470D01*
X52410Y-56446D01*
X52410Y-56767D02*
X52398Y-56744D01*
X52398Y-56696D01*
X52410Y-56672D01*
X52434Y-56660D01*
X52529Y-56660D01*
X52553Y-56672D01*
X52565Y-56696D01*
X52565Y-56744D01*
X52553Y-56767D01*
X52529Y-56779D01*
X52505Y-56779D01*
X52482Y-56660D01*
X52565Y-56886D02*
X52315Y-56886D01*
X52553Y-56886D02*
X52565Y-56910D01*
X52565Y-56958D01*
X52553Y-56982D01*
X52541Y-56994D01*
X52517Y-57005D01*
X52446Y-57005D01*
X52422Y-56994D01*
X52410Y-56982D01*
X52398Y-56958D01*
X52398Y-56910D01*
X52410Y-56886D01*
X52398Y-57220D02*
X52529Y-57220D01*
X52553Y-57208D01*
X52565Y-57184D01*
X52565Y-57136D01*
X52553Y-57113D01*
X52410Y-57220D02*
X52398Y-57196D01*
X52398Y-57136D01*
X52410Y-57113D01*
X52434Y-57101D01*
X52458Y-57101D01*
X52482Y-57113D01*
X52494Y-57136D01*
X52494Y-57196D01*
X52505Y-57220D01*
X52410Y-57327D02*
X52398Y-57351D01*
X52398Y-57398D01*
X52410Y-57422D01*
X52434Y-57434D01*
X52446Y-57434D01*
X52470Y-57422D01*
X52482Y-57398D01*
X52482Y-57363D01*
X52494Y-57339D01*
X52517Y-57327D01*
X52529Y-57327D01*
X52553Y-57339D01*
X52565Y-57363D01*
X52565Y-57398D01*
X52553Y-57422D01*
X52398Y-57577D02*
X52410Y-57553D01*
X52434Y-57541D01*
X52648Y-57541D01*
X52398Y-57779D02*
X52529Y-57779D01*
X52553Y-57767D01*
X52565Y-57744D01*
X52565Y-57696D01*
X52553Y-57672D01*
X52410Y-57779D02*
X52398Y-57755D01*
X52398Y-57696D01*
X52410Y-57672D01*
X52434Y-57660D01*
X52458Y-57660D01*
X52482Y-57672D01*
X52494Y-57696D01*
X52494Y-57755D01*
X52505Y-57779D01*
X52398Y-57898D02*
X52648Y-57898D01*
X52553Y-57898D02*
X52565Y-57922D01*
X52565Y-57970D01*
X52553Y-57994D01*
X52541Y-58005D01*
X52517Y-58017D01*
X52446Y-58017D01*
X52422Y-58005D01*
X52410Y-57994D01*
X52398Y-57970D01*
X52398Y-57922D01*
X52410Y-57898D01*
X52410Y-58113D02*
X52398Y-58136D01*
X52398Y-58184D01*
X52410Y-58208D01*
X52434Y-58220D01*
X52446Y-58220D01*
X52470Y-58208D01*
X52482Y-58184D01*
X52482Y-58148D01*
X52494Y-58125D01*
X52517Y-58113D01*
X52529Y-58113D01*
X52553Y-58125D01*
X52565Y-58148D01*
X52565Y-58184D01*
X52553Y-58208D01*
X52660Y-58505D02*
X52339Y-58291D01*
X52398Y-58589D02*
X52648Y-58589D01*
X52648Y-58684D01*
X52636Y-58708D01*
X52625Y-58720D01*
X52601Y-58732D01*
X52565Y-58732D01*
X52541Y-58720D01*
X52529Y-58708D01*
X52517Y-58684D01*
X52517Y-58589D01*
X52398Y-58839D02*
X52565Y-58839D01*
X52517Y-58839D02*
X52541Y-58851D01*
X52553Y-58863D01*
X52565Y-58886D01*
X52565Y-58910D01*
X52398Y-59029D02*
X52410Y-59005D01*
X52422Y-58994D01*
X52446Y-58982D01*
X52517Y-58982D01*
X52541Y-58994D01*
X52553Y-59005D01*
X52565Y-59029D01*
X52565Y-59065D01*
X52553Y-59089D01*
X52541Y-59101D01*
X52517Y-59113D01*
X52446Y-59113D01*
X52422Y-59101D01*
X52410Y-59089D01*
X52398Y-59065D01*
X52398Y-59029D01*
X52565Y-59327D02*
X52363Y-59327D01*
X52339Y-59315D01*
X52327Y-59303D01*
X52315Y-59279D01*
X52315Y-59244D01*
X52327Y-59220D01*
X52410Y-59327D02*
X52398Y-59303D01*
X52398Y-59255D01*
X52410Y-59232D01*
X52422Y-59220D01*
X52446Y-59208D01*
X52517Y-59208D01*
X52541Y-59220D01*
X52553Y-59232D01*
X52565Y-59255D01*
X52565Y-59303D01*
X52553Y-59327D01*
X52398Y-59446D02*
X52565Y-59446D01*
X52517Y-59446D02*
X52541Y-59458D01*
X52553Y-59470D01*
X52565Y-59494D01*
X52565Y-59517D01*
X52398Y-59708D02*
X52529Y-59708D01*
X52553Y-59696D01*
X52565Y-59672D01*
X52565Y-59625D01*
X52553Y-59601D01*
X52410Y-59708D02*
X52398Y-59684D01*
X52398Y-59625D01*
X52410Y-59601D01*
X52434Y-59589D01*
X52458Y-59589D01*
X52482Y-59601D01*
X52494Y-59625D01*
X52494Y-59684D01*
X52505Y-59708D01*
X52398Y-59827D02*
X52565Y-59827D01*
X52541Y-59827D02*
X52553Y-59839D01*
X52565Y-59863D01*
X52565Y-59898D01*
X52553Y-59922D01*
X52529Y-59934D01*
X52398Y-59934D01*
X52529Y-59934D02*
X52553Y-59946D01*
X52565Y-59970D01*
X52565Y-60005D01*
X52553Y-60029D01*
X52529Y-60041D01*
X52398Y-60041D01*
X52398Y-60160D02*
X52565Y-60160D01*
X52541Y-60160D02*
X52553Y-60172D01*
X52565Y-60196D01*
X52565Y-60232D01*
X52553Y-60255D01*
X52529Y-60267D01*
X52398Y-60267D01*
X52529Y-60267D02*
X52553Y-60279D01*
X52565Y-60303D01*
X52565Y-60339D01*
X52553Y-60363D01*
X52529Y-60375D01*
X52398Y-60375D01*
X52398Y-60601D02*
X52529Y-60601D01*
X52553Y-60589D01*
X52565Y-60565D01*
X52565Y-60517D01*
X52553Y-60494D01*
X52410Y-60601D02*
X52398Y-60577D01*
X52398Y-60517D01*
X52410Y-60494D01*
X52434Y-60482D01*
X52458Y-60482D01*
X52482Y-60494D01*
X52494Y-60517D01*
X52494Y-60577D01*
X52505Y-60601D01*
X52398Y-60720D02*
X52648Y-60720D01*
X52553Y-60720D02*
X52565Y-60744D01*
X52565Y-60791D01*
X52553Y-60815D01*
X52541Y-60827D01*
X52517Y-60839D01*
X52446Y-60839D01*
X52422Y-60827D01*
X52410Y-60815D01*
X52398Y-60791D01*
X52398Y-60744D01*
X52410Y-60720D01*
X52398Y-60982D02*
X52410Y-60958D01*
X52434Y-60946D01*
X52648Y-60946D01*
X52410Y-61172D02*
X52398Y-61148D01*
X52398Y-61101D01*
X52410Y-61077D01*
X52434Y-61065D01*
X52529Y-61065D01*
X52553Y-61077D01*
X52565Y-61101D01*
X52565Y-61148D01*
X52553Y-61172D01*
X52529Y-61184D01*
X52505Y-61184D01*
X52482Y-61065D01*
X52398Y-61410D02*
X52398Y-61291D01*
X52648Y-61291D01*
X52398Y-61494D02*
X52648Y-61494D01*
X52470Y-61577D01*
X52648Y-61660D01*
X52398Y-61660D01*
X52648Y-61755D02*
X52648Y-61910D01*
X52553Y-61827D01*
X52553Y-61863D01*
X52541Y-61886D01*
X52529Y-61898D01*
X52505Y-61910D01*
X52446Y-61910D01*
X52422Y-61898D01*
X52410Y-61886D01*
X52398Y-61863D01*
X52398Y-61791D01*
X52410Y-61767D01*
X52422Y-61755D01*
X52398Y-62148D02*
X52398Y-62005D01*
X52398Y-62077D02*
X52648Y-62077D01*
X52613Y-62053D01*
X52589Y-62029D01*
X52577Y-62005D01*
X52648Y-62232D02*
X52648Y-62398D01*
X52398Y-62291D01*
G54D12*
X48378Y-60114D02*
X48678Y-60114D01*
X48678Y-60228D01*
X48664Y-60257D01*
X48650Y-60271D01*
X48621Y-60285D01*
X48578Y-60285D01*
X48550Y-60271D01*
X48535Y-60257D01*
X48521Y-60228D01*
X48521Y-60114D01*
X48378Y-60414D02*
X48578Y-60414D01*
X48521Y-60414D02*
X48550Y-60428D01*
X48564Y-60442D01*
X48578Y-60471D01*
X48578Y-60500D01*
X48378Y-60642D02*
X48392Y-60614D01*
X48407Y-60600D01*
X48435Y-60585D01*
X48521Y-60585D01*
X48550Y-60600D01*
X48564Y-60614D01*
X48578Y-60642D01*
X48578Y-60685D01*
X48564Y-60714D01*
X48550Y-60728D01*
X48521Y-60742D01*
X48435Y-60742D01*
X48407Y-60728D01*
X48392Y-60714D01*
X48378Y-60685D01*
X48378Y-60642D01*
X48578Y-61000D02*
X48335Y-61000D01*
X48307Y-60985D01*
X48292Y-60971D01*
X48278Y-60942D01*
X48278Y-60900D01*
X48292Y-60871D01*
X48392Y-61000D02*
X48378Y-60971D01*
X48378Y-60914D01*
X48392Y-60885D01*
X48407Y-60871D01*
X48435Y-60857D01*
X48521Y-60857D01*
X48550Y-60871D01*
X48564Y-60885D01*
X48578Y-60914D01*
X48578Y-60971D01*
X48564Y-61000D01*
X48378Y-61142D02*
X48578Y-61142D01*
X48521Y-61142D02*
X48550Y-61157D01*
X48564Y-61171D01*
X48578Y-61200D01*
X48578Y-61228D01*
X48378Y-61457D02*
X48535Y-61457D01*
X48564Y-61442D01*
X48578Y-61414D01*
X48578Y-61357D01*
X48564Y-61328D01*
X48392Y-61457D02*
X48378Y-61428D01*
X48378Y-61357D01*
X48392Y-61328D01*
X48421Y-61314D01*
X48450Y-61314D01*
X48478Y-61328D01*
X48492Y-61357D01*
X48492Y-61428D01*
X48507Y-61457D01*
X48378Y-61600D02*
X48578Y-61600D01*
X48550Y-61600D02*
X48564Y-61614D01*
X48578Y-61642D01*
X48578Y-61685D01*
X48564Y-61714D01*
X48535Y-61728D01*
X48378Y-61728D01*
X48535Y-61728D02*
X48564Y-61742D01*
X48578Y-61771D01*
X48578Y-61814D01*
X48564Y-61842D01*
X48535Y-61857D01*
X48378Y-61857D01*
X48378Y-62000D02*
X48578Y-62000D01*
X48550Y-62000D02*
X48564Y-62014D01*
X48578Y-62042D01*
X48578Y-62085D01*
X48564Y-62114D01*
X48535Y-62128D01*
X48378Y-62128D01*
X48535Y-62128D02*
X48564Y-62142D01*
X48578Y-62171D01*
X48578Y-62214D01*
X48564Y-62242D01*
X48535Y-62257D01*
X48378Y-62257D01*
X48378Y-62528D02*
X48535Y-62528D01*
X48564Y-62514D01*
X48578Y-62485D01*
X48578Y-62428D01*
X48564Y-62400D01*
X48392Y-62528D02*
X48378Y-62500D01*
X48378Y-62428D01*
X48392Y-62400D01*
X48421Y-62385D01*
X48450Y-62385D01*
X48478Y-62400D01*
X48492Y-62428D01*
X48492Y-62500D01*
X48507Y-62528D01*
X48378Y-62671D02*
X48678Y-62671D01*
X48564Y-62671D02*
X48578Y-62700D01*
X48578Y-62757D01*
X48564Y-62785D01*
X48550Y-62800D01*
X48521Y-62814D01*
X48435Y-62814D01*
X48407Y-62800D01*
X48392Y-62785D01*
X48378Y-62757D01*
X48378Y-62700D01*
X48392Y-62671D01*
X48378Y-62985D02*
X48392Y-62957D01*
X48421Y-62942D01*
X48678Y-62942D01*
X48392Y-63214D02*
X48378Y-63185D01*
X48378Y-63128D01*
X48392Y-63100D01*
X48421Y-63085D01*
X48535Y-63085D01*
X48564Y-63100D01*
X48578Y-63128D01*
X48578Y-63185D01*
X48564Y-63214D01*
X48535Y-63228D01*
X48507Y-63228D01*
X48478Y-63085D01*
X48378Y-63728D02*
X48378Y-63585D01*
X48678Y-63585D01*
X48378Y-63828D02*
X48678Y-63828D01*
X48464Y-63928D01*
X48678Y-64028D01*
X48378Y-64028D01*
X48678Y-64142D02*
X48678Y-64328D01*
X48564Y-64228D01*
X48564Y-64271D01*
X48550Y-64300D01*
X48535Y-64314D01*
X48507Y-64328D01*
X48435Y-64328D01*
X48407Y-64314D01*
X48392Y-64300D01*
X48378Y-64271D01*
X48378Y-64185D01*
X48392Y-64157D01*
X48407Y-64142D01*
X48378Y-64614D02*
X48378Y-64442D01*
X48378Y-64528D02*
X48678Y-64528D01*
X48635Y-64500D01*
X48607Y-64471D01*
X48592Y-64442D01*
X48678Y-64714D02*
X48678Y-64914D01*
X48378Y-64785D01*
X48521Y-52335D02*
X48492Y-52321D01*
X48450Y-52321D01*
X48407Y-52335D01*
X48378Y-52364D01*
X48364Y-52392D01*
X48350Y-52450D01*
X48350Y-52492D01*
X48364Y-52550D01*
X48378Y-52578D01*
X48407Y-52607D01*
X48450Y-52621D01*
X48478Y-52621D01*
X48521Y-52607D01*
X48535Y-52592D01*
X48535Y-52492D01*
X48478Y-52492D01*
X48664Y-52621D02*
X48664Y-52321D01*
X48835Y-52621D01*
X48835Y-52321D01*
X48978Y-52621D02*
X48978Y-52321D01*
X49050Y-52321D01*
X49092Y-52335D01*
X49121Y-52364D01*
X49135Y-52392D01*
X49150Y-52450D01*
X49150Y-52492D01*
X49135Y-52550D01*
X49121Y-52578D01*
X49092Y-52607D01*
X49050Y-52621D01*
X48978Y-52621D01*
X50700Y-52621D02*
X50600Y-52478D01*
X50528Y-52621D02*
X50528Y-52321D01*
X50642Y-52321D01*
X50671Y-52335D01*
X50685Y-52350D01*
X50700Y-52378D01*
X50700Y-52421D01*
X50685Y-52450D01*
X50671Y-52464D01*
X50642Y-52478D01*
X50528Y-52478D01*
X50800Y-52321D02*
X51000Y-52621D01*
X51000Y-52321D02*
X50800Y-52621D01*
X49521Y-52321D02*
X49692Y-52321D01*
X49607Y-52621D02*
X49607Y-52321D01*
X49764Y-52321D02*
X49964Y-52621D01*
X49964Y-52321D02*
X49764Y-52621D01*
X48592Y-54207D02*
X48635Y-54221D01*
X48707Y-54221D01*
X48735Y-54207D01*
X48750Y-54192D01*
X48764Y-54164D01*
X48764Y-54135D01*
X48750Y-54107D01*
X48735Y-54092D01*
X48707Y-54078D01*
X48650Y-54064D01*
X48621Y-54050D01*
X48607Y-54035D01*
X48592Y-54007D01*
X48592Y-53978D01*
X48607Y-53950D01*
X48621Y-53935D01*
X48650Y-53921D01*
X48721Y-53921D01*
X48764Y-53935D01*
X48892Y-54064D02*
X48992Y-54064D01*
X49035Y-54221D02*
X48892Y-54221D01*
X48892Y-53921D01*
X49035Y-53921D01*
X49335Y-54221D02*
X49235Y-54078D01*
X49164Y-54221D02*
X49164Y-53921D01*
X49278Y-53921D01*
X49307Y-53935D01*
X49321Y-53950D01*
X49335Y-53978D01*
X49335Y-54021D01*
X49321Y-54050D01*
X49307Y-54064D01*
X49278Y-54078D01*
X49164Y-54078D01*
X49464Y-54221D02*
X49464Y-53921D01*
X49592Y-54135D02*
X49735Y-54135D01*
X49564Y-54221D02*
X49664Y-53921D01*
X49764Y-54221D01*
X50007Y-54221D02*
X49864Y-54221D01*
X49864Y-53921D01*
X50292Y-53921D02*
X50464Y-53921D01*
X50378Y-54221D02*
X50378Y-53921D01*
X50521Y-53921D02*
X50692Y-53921D01*
X50607Y-54221D02*
X50607Y-53921D01*
X50935Y-54221D02*
X50792Y-54221D01*
X50792Y-53921D01*
G54D13*
X56547Y-48809D02*
X56852Y-48809D01*
X61147Y-48809D02*
X61452Y-48809D01*
X61300Y-48961D02*
X61300Y-48657D01*
G54D12*
X59885Y-52357D02*
X60114Y-52357D01*
X60000Y-52471D02*
X60000Y-52242D01*
X57885Y-52357D02*
X58114Y-52357D01*
X58421Y-52471D02*
X58421Y-52171D01*
X58564Y-52471D02*
X58564Y-52171D01*
X58735Y-52471D01*
X58735Y-52171D01*
X58878Y-52471D02*
X58878Y-52171D01*
X58992Y-52171D01*
X59021Y-52185D01*
X59035Y-52200D01*
X59050Y-52228D01*
X59050Y-52271D01*
X59035Y-52300D01*
X59021Y-52314D01*
X58992Y-52328D01*
X58878Y-52328D01*
X59178Y-52171D02*
X59178Y-52414D01*
X59192Y-52442D01*
X59207Y-52457D01*
X59235Y-52471D01*
X59292Y-52471D01*
X59321Y-52457D01*
X59335Y-52442D01*
X59350Y-52414D01*
X59350Y-52171D01*
X59450Y-52171D02*
X59621Y-52171D01*
X59535Y-52471D02*
X59535Y-52171D01*
X63135Y-64257D02*
X63364Y-64257D01*
X61278Y-64071D02*
X61335Y-64071D01*
X61364Y-64085D01*
X61392Y-64114D01*
X61407Y-64171D01*
X61407Y-64271D01*
X61392Y-64328D01*
X61364Y-64357D01*
X61335Y-64371D01*
X61278Y-64371D01*
X61250Y-64357D01*
X61221Y-64328D01*
X61207Y-64271D01*
X61207Y-64171D01*
X61221Y-64114D01*
X61250Y-64085D01*
X61278Y-64071D01*
X61535Y-64071D02*
X61535Y-64314D01*
X61550Y-64342D01*
X61564Y-64357D01*
X61592Y-64371D01*
X61650Y-64371D01*
X61678Y-64357D01*
X61692Y-64342D01*
X61707Y-64314D01*
X61707Y-64071D01*
X61807Y-64071D02*
X61978Y-64071D01*
X61892Y-64371D02*
X61892Y-64071D01*
X62078Y-64371D02*
X62078Y-64071D01*
X62192Y-64071D01*
X62221Y-64085D01*
X62235Y-64100D01*
X62250Y-64128D01*
X62250Y-64171D01*
X62235Y-64200D01*
X62221Y-64214D01*
X62192Y-64228D01*
X62078Y-64228D01*
X62378Y-64071D02*
X62378Y-64314D01*
X62392Y-64342D01*
X62407Y-64357D01*
X62435Y-64371D01*
X62492Y-64371D01*
X62521Y-64357D01*
X62535Y-64342D01*
X62550Y-64314D01*
X62550Y-64071D01*
X62650Y-64071D02*
X62821Y-64071D01*
X62735Y-64371D02*
X62735Y-64071D01*
X60635Y-64257D02*
X60864Y-64257D01*
X60750Y-64371D02*
X60750Y-64142D01*
G54D13*
X64197Y-67659D02*
X64502Y-67659D01*
X59497Y-67659D02*
X59802Y-67659D01*
X59650Y-67811D02*
X59650Y-67507D01*
G54D14*
X58750Y-56750D02*
X58500Y-56750D01*
X58500Y-56750D02*
X58500Y-52750D01*
X58500Y-52750D02*
X58750Y-52750D01*
X60250Y-56750D02*
X58750Y-56750D01*
X58750Y-56750D02*
X58750Y-52750D01*
X58750Y-52750D02*
X60250Y-52750D01*
X60250Y-52750D02*
X60250Y-56750D01*
X63000Y-53250D02*
G75*
G03X63000Y-53250I-1000J0D01*
G74*
G01*
X59250Y-59000D02*
X59250Y-58750D01*
X59250Y-58750D02*
X63250Y-58750D01*
X63250Y-58750D02*
X63250Y-59000D01*
X59250Y-60500D02*
X59250Y-59000D01*
X59250Y-59000D02*
X63250Y-59000D01*
X63250Y-59000D02*
X63250Y-60500D01*
X63250Y-60500D02*
X59250Y-60500D01*
X50750Y-60250D02*
X50750Y-60650D01*
X50750Y-60650D02*
X51150Y-60650D01*
X51150Y-60650D02*
X51150Y-63850D01*
X51150Y-63850D02*
X50350Y-63850D01*
X50350Y-63850D02*
X50350Y-60650D01*
X50350Y-60650D02*
X50750Y-60650D01*
X50750Y-64250D02*
X50750Y-63850D01*
X49750Y-64250D02*
X49750Y-63850D01*
X49750Y-63850D02*
X49350Y-63850D01*
X49350Y-63850D02*
X49350Y-60650D01*
X49350Y-60650D02*
X50150Y-60650D01*
X50150Y-60650D02*
X50150Y-63850D01*
X50150Y-63850D02*
X49750Y-63850D01*
X49750Y-60250D02*
X49750Y-60650D01*
G54D12*
X51250Y-52750D02*
X51250Y-53750D01*
X51250Y-53750D02*
X48250Y-53750D01*
X48250Y-53750D02*
X48250Y-52750D01*
X48250Y-52750D02*
X51250Y-52750D01*
X50250Y-53750D02*
X50250Y-52750D01*
G54D14*
X64324Y-50250D02*
G75*
G03X64324Y-50250I-1574J0D01*
G74*
G01*
X56100Y-67150D02*
X56100Y-64350D01*
X56100Y-64350D02*
X56900Y-64350D01*
X56900Y-64350D02*
X56900Y-67150D01*
X56900Y-67150D02*
X56100Y-67150D01*
X55850Y-52150D02*
X55850Y-49350D01*
X55850Y-49350D02*
X56650Y-49350D01*
X56650Y-49350D02*
X56650Y-52150D01*
X56650Y-52150D02*
X55850Y-52150D01*
X51650Y-59650D02*
X48850Y-59650D01*
X48850Y-59650D02*
X48850Y-58850D01*
X48850Y-58850D02*
X51650Y-58850D01*
X51650Y-58850D02*
X51650Y-59650D01*
X55450Y-65750D02*
G75*
G03X55750Y-66050I300J0D01*
G74*
G01*
X55750Y-65450D02*
G75*
G03X55450Y-65750I0J-300D01*
G74*
G01*
X55750Y-66750D02*
X51750Y-66750D01*
X51750Y-66750D02*
X51750Y-64750D01*
X51750Y-64750D02*
X55750Y-64750D01*
X55750Y-64750D02*
X55750Y-66750D01*
X50250Y-58200D02*
G75*
G03X49950Y-58500I0J-300D01*
G74*
G01*
X50550Y-58500D02*
G75*
G03X50250Y-58200I-300J0D01*
G74*
G01*
X49250Y-58500D02*
X49250Y-54500D01*
X49250Y-54500D02*
X51250Y-54500D01*
X51250Y-54500D02*
X51250Y-58500D01*
X51250Y-58500D02*
X49250Y-58500D01*
X55200Y-50750D02*
G75*
G03X55500Y-51050I300J0D01*
G74*
G01*
X55500Y-50450D02*
G75*
G03X55200Y-50750I0J-300D01*
G74*
G01*
X55500Y-51750D02*
X51500Y-51750D01*
X51500Y-51750D02*
X51500Y-49750D01*
X51500Y-49750D02*
X55500Y-49750D01*
X55500Y-49750D02*
X55500Y-51750D01*
G54D10*
X57750Y-53180D02*
X57900Y-53300D01*
X57900Y-57940D02*
X57900Y-53300D01*
X57760Y-63320D02*
X57900Y-63200D01*
X57900Y-58560D02*
X57900Y-63200D01*
X64680Y-53210D02*
X64600Y-53300D01*
X64600Y-57940D02*
X64600Y-53300D01*
X64600Y-63150D02*
X64700Y-63280D01*
X64600Y-58560D02*
X64600Y-63150D01*
X66690Y-58421D02*
X69550Y-60111D01*
X69550Y-60111D02*
X69590Y-60291D01*
X69590Y-60291D02*
X69470Y-60471D01*
X69470Y-60471D02*
X69320Y-60521D01*
X69320Y-60521D02*
X69180Y-60481D01*
X69180Y-60481D02*
X67530Y-59531D01*
X67530Y-59531D02*
X67200Y-59551D01*
X67200Y-59551D02*
X66960Y-59771D01*
X66960Y-59771D02*
X66890Y-60141D01*
X66890Y-60141D02*
X66990Y-60341D01*
X66990Y-60341D02*
X69600Y-63011D01*
X69600Y-63011D02*
X69580Y-63181D01*
X69580Y-63181D02*
X69420Y-63311D01*
X69420Y-63311D02*
X69280Y-63321D01*
X69280Y-63321D02*
X69160Y-63241D01*
X69160Y-63241D02*
X67410Y-61551D01*
X67410Y-61551D02*
X67290Y-61541D01*
X67290Y-61541D02*
X67140Y-61601D01*
X67140Y-61601D02*
X67080Y-61821D01*
X67080Y-61821D02*
X67730Y-63011D01*
X67730Y-63011D02*
X67730Y-63141D01*
X67730Y-63141D02*
X67620Y-63281D01*
X67620Y-63281D02*
X67460Y-63321D01*
X67460Y-63321D02*
X67310Y-63281D01*
X67310Y-63281D02*
X65630Y-60981D01*
X65630Y-60981D02*
X65380Y-60931D01*
X65380Y-60931D02*
X65170Y-61011D01*
X65170Y-61011D02*
X65100Y-61141D01*
X65100Y-61141D02*
X65100Y-63101D01*
X65100Y-63101D02*
X64940Y-63281D01*
X64940Y-63281D02*
X64820Y-63311D01*
X64820Y-63311D02*
X64700Y-63281D01*
X64680Y-53210D02*
X64850Y-53171D01*
X64850Y-53171D02*
X64990Y-53231D01*
X64990Y-53231D02*
X65090Y-53431D01*
X65090Y-53431D02*
X65120Y-55361D01*
X65120Y-55361D02*
X65240Y-55511D01*
X65240Y-55511D02*
X65440Y-55591D01*
X65440Y-55591D02*
X65640Y-55491D01*
X65640Y-55491D02*
X67330Y-53201D01*
X67330Y-53201D02*
X67500Y-53171D01*
X67500Y-53171D02*
X67670Y-53251D01*
X67670Y-53251D02*
X67740Y-53431D01*
X67740Y-53431D02*
X67130Y-54541D01*
X67130Y-54541D02*
X67100Y-54821D01*
X67100Y-54821D02*
X67230Y-54941D01*
X67230Y-54941D02*
X67380Y-54941D01*
X67380Y-54941D02*
X67480Y-54871D01*
X67480Y-54871D02*
X69200Y-53221D01*
X69200Y-53221D02*
X69380Y-53171D01*
X69380Y-53171D02*
X69520Y-53251D01*
X69520Y-53251D02*
X69600Y-53411D01*
X69600Y-53411D02*
X69530Y-53561D01*
X69530Y-53561D02*
X66910Y-56231D01*
X66910Y-56231D02*
X66940Y-56681D01*
X66940Y-56681D02*
X67170Y-56901D01*
X67170Y-56901D02*
X67470Y-56941D01*
X67470Y-56941D02*
X67670Y-56891D01*
X67670Y-56891D02*
X69300Y-55961D01*
X69300Y-55961D02*
X69460Y-56011D01*
X69460Y-56011D02*
X69580Y-56151D01*
X69580Y-56151D02*
X69570Y-56321D01*
X69570Y-56321D02*
X69430Y-56471D01*
X69430Y-56471D02*
X66690Y-58031D01*
X55810Y-58021D02*
X52960Y-56361D01*
X52960Y-56361D02*
X52930Y-56161D01*
X52930Y-56161D02*
X53020Y-56031D01*
X53020Y-56031D02*
X53250Y-55981D01*
X53250Y-55981D02*
X54980Y-56971D01*
X54980Y-56971D02*
X55350Y-56911D01*
X55350Y-56911D02*
X55630Y-56591D01*
X55630Y-56591D02*
X55630Y-56331D01*
X55630Y-56331D02*
X55540Y-56151D01*
X55540Y-56151D02*
X52920Y-53481D01*
X52920Y-53481D02*
X52940Y-53291D01*
X52940Y-53291D02*
X53040Y-53191D01*
X53040Y-53191D02*
X53210Y-53161D01*
X53210Y-53161D02*
X53320Y-53231D01*
X53320Y-53231D02*
X55040Y-54901D01*
X55040Y-54901D02*
X55220Y-54951D01*
X55220Y-54951D02*
X55370Y-54881D01*
X55370Y-54881D02*
X55430Y-54721D01*
X55430Y-54721D02*
X55390Y-54551D01*
X55390Y-54551D02*
X54800Y-53501D01*
X54800Y-53501D02*
X54800Y-53341D01*
X54800Y-53341D02*
X54890Y-53211D01*
X54890Y-53211D02*
X55070Y-53161D01*
X55070Y-53161D02*
X55210Y-53231D01*
X55210Y-53231D02*
X56810Y-55431D01*
X56810Y-55431D02*
X57070Y-55601D01*
X57070Y-55601D02*
X57230Y-55551D01*
X57230Y-55551D02*
X57410Y-55341D01*
X57410Y-55341D02*
X57440Y-53311D01*
X57440Y-53311D02*
X57620Y-53191D01*
X57620Y-53191D02*
X57750Y-53181D01*
X57610Y-63321D02*
X57450Y-63191D01*
X57450Y-63191D02*
X57410Y-61161D01*
X57410Y-61161D02*
X57280Y-60961D01*
X57280Y-60961D02*
X56990Y-60931D01*
X56990Y-60931D02*
X56830Y-61041D01*
X56830Y-61041D02*
X55200Y-63271D01*
X55200Y-63271D02*
X54950Y-63321D01*
X54950Y-63321D02*
X54810Y-63211D01*
X54810Y-63211D02*
X54790Y-62991D01*
X54790Y-62991D02*
X55430Y-61861D01*
X55430Y-61861D02*
X55410Y-61651D01*
X55410Y-61651D02*
X55280Y-61551D01*
X55280Y-61551D02*
X55090Y-61561D01*
X55090Y-61561D02*
X53270Y-63311D01*
X53270Y-63311D02*
X53060Y-63311D01*
X53060Y-63311D02*
X52960Y-63221D01*
X52960Y-63221D02*
X52940Y-62971D01*
X52940Y-62971D02*
X55600Y-60221D01*
X55600Y-60221D02*
X55630Y-59951D01*
X55630Y-59951D02*
X55340Y-59571D01*
X55340Y-59571D02*
X55010Y-59521D01*
X55010Y-59521D02*
X53210Y-60521D01*
X53210Y-60521D02*
X53040Y-60481D01*
X53040Y-60481D02*
X52940Y-60341D01*
X52940Y-60341D02*
X53010Y-60061D01*
X53010Y-60061D02*
X55800Y-58441D01*
X57760Y-63321D02*
X57610Y-63321D01*
X64600Y-57940D02*
X57900Y-57940D01*
X64600Y-58560D02*
X57900Y-58560D01*
X62500Y-68000D02*
X62500Y-67500D01*
X62500Y-67500D02*
X63500Y-67500D01*
X63500Y-67500D02*
X63500Y-68000D01*
X60500Y-68000D02*
X60500Y-67500D01*
X60500Y-67500D02*
X61500Y-67500D01*
X61500Y-67500D02*
X61500Y-68000D01*
X60000Y-64500D02*
X60000Y-68000D01*
X60000Y-68000D02*
X64000Y-68000D01*
X64000Y-68000D02*
X64000Y-64500D01*
X64000Y-64500D02*
X60000Y-64500D01*
X58500Y-48500D02*
X58500Y-49000D01*
X58500Y-49000D02*
X57500Y-49000D01*
X57500Y-49000D02*
X57500Y-48500D01*
X60500Y-48500D02*
X60500Y-49000D01*
X60500Y-49000D02*
X59500Y-49000D01*
X59500Y-49000D02*
X59500Y-48500D01*
X61000Y-52000D02*
X61000Y-48500D01*
X61000Y-48500D02*
X57000Y-48500D01*
X57000Y-48500D02*
X57000Y-52000D01*
X57000Y-52000D02*
X61000Y-52000D01*
X51021Y-49750D02*
G75*
G03X51021Y-49750I-1771J0D01*
G74*
G01*
X51021Y-66750D02*
G75*
G03X51021Y-66750I-1771J0D01*
G74*
G01*
X68021Y-49750D02*
G75*
G03X68021Y-49750I-1771J0D01*
G74*
G01*
X68021Y-66750D02*
G75*
G03X68021Y-66750I-1771J0D01*
G74*
G01*
G54D14*
X60600Y-55850D02*
X63400Y-55850D01*
X63400Y-55850D02*
X63400Y-56650D01*
X63400Y-56650D02*
X60600Y-56650D01*
X60600Y-56650D02*
X60600Y-55850D01*
X62650Y-60850D02*
X62650Y-63650D01*
X62650Y-63650D02*
X61850Y-63650D01*
X61850Y-63650D02*
X61850Y-60850D01*
X61850Y-60850D02*
X62650Y-60850D01*
X60650Y-60850D02*
X60650Y-63650D01*
X60650Y-63650D02*
X59850Y-63650D01*
X59850Y-63650D02*
X59850Y-60850D01*
X59850Y-60850D02*
X60650Y-60850D01*
X60600Y-54600D02*
X63400Y-54600D01*
X63400Y-54600D02*
X63400Y-55400D01*
X63400Y-55400D02*
X60600Y-55400D01*
X60600Y-55400D02*
X60600Y-54600D01*
X59500Y-66500D02*
G75*
G03X59500Y-66500I-1000J0D01*
G74*
G01*
X59000Y-65000D02*
X59000Y-64600D01*
X59000Y-64600D02*
X58600Y-64600D01*
X58600Y-64600D02*
X58600Y-61400D01*
X58600Y-61400D02*
X59400Y-61400D01*
X59400Y-61400D02*
X59400Y-64600D01*
X59400Y-64600D02*
X59000Y-64600D01*
X59000Y-61000D02*
X59000Y-61400D01*
G54D15*
G36*
X53043Y-57773D02*
X53047Y-57781D01*
X53059Y-57800D01*
X53076Y-57826D01*
X53097Y-57857D01*
X53118Y-57888D01*
X53135Y-57914D01*
X53147Y-57932D01*
X53151Y-57939D01*
X53150Y-57943D01*
X53142Y-57958D01*
X53131Y-57980D01*
X53125Y-57992D01*
X53116Y-58012D01*
X53114Y-58022D01*
X53117Y-58023D01*
X53132Y-58031D01*
X53158Y-58042D01*
X53192Y-58057D01*
X53232Y-58074D01*
X53275Y-58092D01*
X53319Y-58110D01*
X53361Y-58128D01*
X53399Y-58143D01*
X53429Y-58156D01*
X53451Y-58164D01*
X53460Y-58167D01*
X53462Y-58166D01*
X53471Y-58156D01*
X53484Y-58139D01*
X53515Y-58101D01*
X53561Y-58065D01*
X53613Y-58042D01*
X53671Y-58035D01*
X53724Y-58041D01*
X53775Y-58062D01*
X53822Y-58098D01*
X53856Y-58142D01*
X53878Y-58193D01*
X53885Y-58250D01*
X53879Y-58305D01*
X53858Y-58357D01*
X53823Y-58404D01*
X53800Y-58423D01*
X53753Y-58450D01*
X53703Y-58466D01*
X53691Y-58467D01*
X53635Y-58465D01*
X53582Y-58449D01*
X53535Y-58420D01*
X53496Y-58379D01*
X53492Y-58374D01*
X53478Y-58355D01*
X53469Y-58343D01*
X53461Y-58333D01*
X53291Y-58403D01*
X53264Y-58414D01*
X53218Y-58434D01*
X53178Y-58451D01*
X53146Y-58464D01*
X53125Y-58474D01*
X53116Y-58478D01*
X53116Y-58478D01*
X53115Y-58484D01*
X53120Y-58497D01*
X53131Y-58521D01*
X53139Y-58537D01*
X53148Y-58555D01*
X53151Y-58563D01*
X53147Y-58570D01*
X53136Y-58587D01*
X53119Y-58612D01*
X53099Y-58642D01*
X53079Y-58671D01*
X53061Y-58698D01*
X53049Y-58717D01*
X53044Y-58727D01*
X53044Y-58728D01*
X53049Y-58736D01*
X53061Y-58752D01*
X53083Y-58775D01*
X53115Y-58807D01*
X53120Y-58812D01*
X53148Y-58839D01*
X53171Y-58861D01*
X53187Y-58876D01*
X53194Y-58881D01*
X53194Y-58881D01*
X53204Y-58876D01*
X53223Y-58864D01*
X53250Y-58846D01*
X53281Y-58825D01*
X53363Y-58769D01*
X53440Y-58800D01*
X53463Y-58809D01*
X53492Y-58821D01*
X53512Y-58830D01*
X53521Y-58835D01*
X53524Y-58843D01*
X53529Y-58864D01*
X53536Y-58895D01*
X53542Y-58931D01*
X53549Y-58966D01*
X53555Y-58997D01*
X53559Y-59020D01*
X53561Y-59030D01*
X53563Y-59032D01*
X53568Y-59034D01*
X53578Y-59036D01*
X53597Y-59036D01*
X53627Y-59037D01*
X53671Y-59037D01*
X53675Y-59037D01*
X53717Y-59036D01*
X53750Y-59036D01*
X53771Y-59035D01*
X53779Y-59033D01*
X53779Y-59033D01*
X53782Y-59023D01*
X53786Y-59001D01*
X53793Y-58970D01*
X53800Y-58932D01*
X53800Y-58930D01*
X53807Y-58893D01*
X53814Y-58862D01*
X53819Y-58840D01*
X53822Y-58831D01*
X53824Y-58829D01*
X53839Y-58821D01*
X53862Y-58810D01*
X53890Y-58798D01*
X53919Y-58786D01*
X53946Y-58775D01*
X53965Y-58768D01*
X53974Y-58766D01*
X53974Y-58766D01*
X53983Y-58772D01*
X54003Y-58785D01*
X54029Y-58803D01*
X54061Y-58825D01*
X54064Y-58826D01*
X54095Y-58848D01*
X54122Y-58865D01*
X54141Y-58877D01*
X54149Y-58881D01*
X54150Y-58881D01*
X54159Y-58874D01*
X54177Y-58858D01*
X54201Y-58835D01*
X54229Y-58807D01*
X54237Y-58798D01*
X54267Y-58768D01*
X54287Y-58747D01*
X54297Y-58733D01*
X54300Y-58727D01*
X54299Y-58727D01*
X54294Y-58717D01*
X54281Y-58697D01*
X54262Y-58670D01*
X54241Y-58638D01*
X54239Y-58636D01*
X54218Y-58605D01*
X54200Y-58579D01*
X54188Y-58560D01*
X54183Y-58552D01*
X54183Y-58550D01*
X54187Y-58538D01*
X54194Y-58515D01*
X54205Y-58488D01*
X54217Y-58459D01*
X54228Y-58432D01*
X54237Y-58412D01*
X54242Y-58403D01*
X54243Y-58403D01*
X54254Y-58399D01*
X54278Y-58394D01*
X54310Y-58387D01*
X54349Y-58380D01*
X54355Y-58379D01*
X54392Y-58372D01*
X54423Y-58366D01*
X54445Y-58361D01*
X54454Y-58359D01*
X54455Y-58354D01*
X54456Y-58335D01*
X54457Y-58307D01*
X54457Y-58273D01*
X54457Y-58238D01*
X54456Y-58204D01*
X54455Y-58174D01*
X54454Y-58153D01*
X54452Y-58144D01*
X54451Y-58143D01*
X54440Y-58140D01*
X54416Y-58135D01*
X54384Y-58128D01*
X54345Y-58121D01*
X54338Y-58120D01*
X54301Y-58113D01*
X54270Y-58106D01*
X54249Y-58102D01*
X54241Y-58099D01*
X54239Y-58096D01*
X54232Y-58081D01*
X54222Y-58056D01*
X54209Y-58024D01*
X54180Y-57952D01*
X54241Y-57864D01*
X54246Y-57856D01*
X54268Y-57824D01*
X54285Y-57798D01*
X54297Y-57780D01*
X54301Y-57772D01*
X54301Y-57772D01*
X54293Y-57763D01*
X54277Y-57745D01*
X54253Y-57721D01*
X54226Y-57694D01*
X54205Y-57673D01*
X54180Y-57649D01*
X54164Y-57633D01*
X54153Y-57625D01*
X54146Y-57622D01*
X54142Y-57623D01*
X54133Y-57628D01*
X54114Y-57641D01*
X54087Y-57659D01*
X54056Y-57681D01*
X54029Y-57699D01*
X54000Y-57718D01*
X53979Y-57730D01*
X53968Y-57735D01*
X53964Y-57734D01*
X53947Y-57727D01*
X53920Y-57717D01*
X53889Y-57704D01*
X53819Y-57673D01*
X53811Y-57627D01*
X53805Y-57599D01*
X53798Y-57560D01*
X53791Y-57523D01*
X53779Y-57465D01*
X53567Y-57463D01*
X53563Y-57472D01*
X53560Y-57481D01*
X53556Y-57502D01*
X53550Y-57533D01*
X53543Y-57569D01*
X53537Y-57600D01*
X53531Y-57631D01*
X53527Y-57653D01*
X53525Y-57663D01*
X53521Y-57666D01*
X53506Y-57674D01*
X53482Y-57685D01*
X53453Y-57697D01*
X53424Y-57709D01*
X53396Y-57720D01*
X53375Y-57728D01*
X53364Y-57731D01*
X53356Y-57727D01*
X53338Y-57715D01*
X53312Y-57698D01*
X53281Y-57677D01*
X53250Y-57655D01*
X53223Y-57638D01*
X53204Y-57625D01*
X53196Y-57620D01*
X53190Y-57623D01*
X53175Y-57635D01*
X53151Y-57658D01*
X53116Y-57693D01*
X53111Y-57699D01*
X53084Y-57726D01*
X53063Y-57750D01*
X53048Y-57766D01*
X53043Y-57773D01*
X53043Y-57773D01*
G37*
G54D12*
X60421Y-53978D02*
X60664Y-53978D01*
X60692Y-53964D01*
X60707Y-53950D01*
X60721Y-53921D01*
X60721Y-53864D01*
X60707Y-53835D01*
X60692Y-53821D01*
X60664Y-53807D01*
X60421Y-53807D01*
X60521Y-53535D02*
X60721Y-53535D01*
X60407Y-53607D02*
X60621Y-53678D01*
X60621Y-53492D01*
X58971Y-56921D02*
X59171Y-56921D01*
X59042Y-57221D01*
X59328Y-57050D02*
X59300Y-57035D01*
X59285Y-57021D01*
X59271Y-56992D01*
X59271Y-56978D01*
X59285Y-56950D01*
X59300Y-56935D01*
X59328Y-56921D01*
X59385Y-56921D01*
X59414Y-56935D01*
X59428Y-56950D01*
X59442Y-56978D01*
X59442Y-56992D01*
X59428Y-57021D01*
X59414Y-57035D01*
X59385Y-57050D01*
X59328Y-57050D01*
X59300Y-57064D01*
X59285Y-57078D01*
X59271Y-57107D01*
X59271Y-57164D01*
X59285Y-57192D01*
X59300Y-57207D01*
X59328Y-57221D01*
X59385Y-57221D01*
X59414Y-57207D01*
X59428Y-57192D01*
X59442Y-57164D01*
X59442Y-57107D01*
X59428Y-57078D01*
X59414Y-57064D01*
X59385Y-57050D01*
X59628Y-56921D02*
X59657Y-56921D01*
X59685Y-56935D01*
X59700Y-56950D01*
X59714Y-56978D01*
X59728Y-57035D01*
X59728Y-57107D01*
X59714Y-57164D01*
X59700Y-57192D01*
X59685Y-57207D01*
X59657Y-57221D01*
X59628Y-57221D01*
X59600Y-57207D01*
X59585Y-57192D01*
X59571Y-57164D01*
X59557Y-57107D01*
X59557Y-57035D01*
X59571Y-56978D01*
X59585Y-56950D01*
X59600Y-56935D01*
X59628Y-56921D01*
X60000Y-56921D02*
X59857Y-56921D01*
X59842Y-57064D01*
X59857Y-57050D01*
X59885Y-57035D01*
X59957Y-57035D01*
X59985Y-57050D01*
X60000Y-57064D01*
X60014Y-57092D01*
X60014Y-57164D01*
X60000Y-57192D01*
X59985Y-57207D01*
X59957Y-57221D01*
X59885Y-57221D01*
X59857Y-57207D01*
X59842Y-57192D01*
G54D11*
X62308Y-52777D02*
X62296Y-52789D01*
X62260Y-52801D01*
X62236Y-52801D01*
X62201Y-52789D01*
X62177Y-52765D01*
X62165Y-52741D01*
X62153Y-52694D01*
X62153Y-52658D01*
X62165Y-52610D01*
X62177Y-52586D01*
X62201Y-52563D01*
X62236Y-52551D01*
X62260Y-52551D01*
X62296Y-52563D01*
X62308Y-52575D01*
X62522Y-52551D02*
X62475Y-52551D01*
X62451Y-52563D01*
X62439Y-52575D01*
X62415Y-52610D01*
X62403Y-52658D01*
X62403Y-52753D01*
X62415Y-52777D01*
X62427Y-52789D01*
X62451Y-52801D01*
X62498Y-52801D01*
X62522Y-52789D01*
X62534Y-52777D01*
X62546Y-52753D01*
X62546Y-52694D01*
X62534Y-52670D01*
X62522Y-52658D01*
X62498Y-52646D01*
X62451Y-52646D01*
X62427Y-52658D01*
X62415Y-52670D01*
X62403Y-52694D01*
X61732Y-53951D02*
X61589Y-53951D01*
X61660Y-53951D02*
X61660Y-53701D01*
X61636Y-53736D01*
X61613Y-53760D01*
X61589Y-53772D01*
X61886Y-53701D02*
X61910Y-53701D01*
X61934Y-53713D01*
X61946Y-53725D01*
X61958Y-53748D01*
X61970Y-53796D01*
X61970Y-53855D01*
X61958Y-53903D01*
X61946Y-53927D01*
X61934Y-53939D01*
X61910Y-53951D01*
X61886Y-53951D01*
X61863Y-53939D01*
X61851Y-53927D01*
X61839Y-53903D01*
X61827Y-53855D01*
X61827Y-53796D01*
X61839Y-53748D01*
X61851Y-53725D01*
X61863Y-53713D01*
X61886Y-53701D01*
X62184Y-53784D02*
X62184Y-53951D01*
X62077Y-53784D02*
X62077Y-53915D01*
X62089Y-53939D01*
X62113Y-53951D01*
X62148Y-53951D01*
X62172Y-53939D01*
X62184Y-53927D01*
X62386Y-53820D02*
X62303Y-53820D01*
X62303Y-53951D02*
X62303Y-53701D01*
X62422Y-53701D01*
G54D12*
X61385Y-52657D02*
X61614Y-52657D01*
X61500Y-52771D02*
X61500Y-52542D01*
X61021Y-60671D02*
X61021Y-60914D01*
X61035Y-60942D01*
X61050Y-60957D01*
X61078Y-60971D01*
X61135Y-60971D01*
X61164Y-60957D01*
X61178Y-60942D01*
X61192Y-60914D01*
X61192Y-60671D01*
X61492Y-60971D02*
X61321Y-60971D01*
X61407Y-60971D02*
X61407Y-60671D01*
X61378Y-60714D01*
X61350Y-60742D01*
X61321Y-60757D01*
X59121Y-60257D02*
X59121Y-60399D01*
X58821Y-60399D01*
X59121Y-60157D02*
X58821Y-60157D01*
X59035Y-60057D01*
X58821Y-59957D01*
X59121Y-59957D01*
X58821Y-59842D02*
X58821Y-59657D01*
X58935Y-59757D01*
X58935Y-59714D01*
X58950Y-59685D01*
X58964Y-59671D01*
X58992Y-59657D01*
X59064Y-59657D01*
X59092Y-59671D01*
X59107Y-59685D01*
X59121Y-59714D01*
X59121Y-59800D01*
X59107Y-59828D01*
X59092Y-59842D01*
X59121Y-59371D02*
X59121Y-59542D01*
X59121Y-59457D02*
X58821Y-59457D01*
X58864Y-59485D01*
X58892Y-59514D01*
X58907Y-59542D01*
X58821Y-59271D02*
X58821Y-59071D01*
X59121Y-59200D01*
X50871Y-61500D02*
X50728Y-61600D01*
X50871Y-61671D02*
X50571Y-61671D01*
X50571Y-61557D01*
X50585Y-61528D01*
X50600Y-61514D01*
X50628Y-61500D01*
X50671Y-61500D01*
X50700Y-61514D01*
X50714Y-61528D01*
X50728Y-61557D01*
X50728Y-61671D01*
X50871Y-61214D02*
X50871Y-61385D01*
X50871Y-61300D02*
X50571Y-61300D01*
X50614Y-61328D01*
X50642Y-61357D01*
X50657Y-61385D01*
X50871Y-63228D02*
X50871Y-63399D01*
X50871Y-63314D02*
X50571Y-63314D01*
X50614Y-63342D01*
X50642Y-63371D01*
X50657Y-63399D01*
X50571Y-63042D02*
X50571Y-63014D01*
X50585Y-62985D01*
X50600Y-62971D01*
X50628Y-62957D01*
X50685Y-62942D01*
X50757Y-62942D01*
X50814Y-62957D01*
X50842Y-62971D01*
X50857Y-62985D01*
X50871Y-63014D01*
X50871Y-63042D01*
X50857Y-63071D01*
X50842Y-63085D01*
X50814Y-63099D01*
X50757Y-63114D01*
X50685Y-63114D01*
X50628Y-63099D01*
X50600Y-63085D01*
X50585Y-63071D01*
X50571Y-63042D01*
X50871Y-62814D02*
X50571Y-62814D01*
X50757Y-62785D02*
X50871Y-62700D01*
X50671Y-62700D02*
X50785Y-62814D01*
X49871Y-63100D02*
X49728Y-63200D01*
X49871Y-63271D02*
X49571Y-63271D01*
X49571Y-63157D01*
X49585Y-63128D01*
X49600Y-63114D01*
X49628Y-63100D01*
X49671Y-63100D01*
X49700Y-63114D01*
X49714Y-63128D01*
X49728Y-63157D01*
X49728Y-63271D01*
X49600Y-62985D02*
X49585Y-62971D01*
X49571Y-62942D01*
X49571Y-62871D01*
X49585Y-62842D01*
X49600Y-62828D01*
X49628Y-62814D01*
X49657Y-62814D01*
X49700Y-62828D01*
X49871Y-63000D01*
X49871Y-62814D01*
X49571Y-61814D02*
X49571Y-61628D01*
X49685Y-61728D01*
X49685Y-61685D01*
X49700Y-61657D01*
X49714Y-61642D01*
X49742Y-61628D01*
X49814Y-61628D01*
X49842Y-61642D01*
X49857Y-61657D01*
X49871Y-61685D01*
X49871Y-61771D01*
X49857Y-61799D01*
X49842Y-61814D01*
X49571Y-61528D02*
X49571Y-61342D01*
X49685Y-61442D01*
X49685Y-61399D01*
X49700Y-61371D01*
X49714Y-61357D01*
X49742Y-61342D01*
X49814Y-61342D01*
X49842Y-61357D01*
X49857Y-61371D01*
X49871Y-61399D01*
X49871Y-61485D01*
X49857Y-61514D01*
X49842Y-61528D01*
X49871Y-61214D02*
X49571Y-61214D01*
X49757Y-61185D02*
X49871Y-61100D01*
X49671Y-61100D02*
X49785Y-61214D01*
X62700Y-52212D02*
X62685Y-52227D01*
X62642Y-52241D01*
X62614Y-52241D01*
X62571Y-52227D01*
X62542Y-52198D01*
X62528Y-52170D01*
X62514Y-52112D01*
X62514Y-52070D01*
X62528Y-52012D01*
X62542Y-51984D01*
X62571Y-51955D01*
X62614Y-51941D01*
X62642Y-51941D01*
X62685Y-51955D01*
X62700Y-51970D01*
X62985Y-52241D02*
X62814Y-52241D01*
X62900Y-52241D02*
X62900Y-51941D01*
X62871Y-51984D01*
X62842Y-52012D01*
X62814Y-52027D01*
X62285Y-49271D02*
X62114Y-49271D01*
X62200Y-49271D02*
X62200Y-48971D01*
X62171Y-49014D01*
X62142Y-49042D01*
X62114Y-49057D01*
X62471Y-48971D02*
X62500Y-48971D01*
X62528Y-48985D01*
X62542Y-49000D01*
X62557Y-49028D01*
X62571Y-49085D01*
X62571Y-49157D01*
X62557Y-49214D01*
X62542Y-49242D01*
X62528Y-49257D01*
X62500Y-49271D01*
X62471Y-49271D01*
X62442Y-49257D01*
X62428Y-49242D01*
X62414Y-49214D01*
X62400Y-49157D01*
X62400Y-49085D01*
X62414Y-49028D01*
X62428Y-49000D01*
X62442Y-48985D01*
X62471Y-48971D01*
X62757Y-48971D02*
X62785Y-48971D01*
X62814Y-48985D01*
X62828Y-49000D01*
X62842Y-49028D01*
X62857Y-49085D01*
X62857Y-49157D01*
X62842Y-49214D01*
X62828Y-49242D01*
X62814Y-49257D01*
X62785Y-49271D01*
X62757Y-49271D01*
X62728Y-49257D01*
X62714Y-49242D01*
X62700Y-49214D01*
X62685Y-49157D01*
X62685Y-49085D01*
X62700Y-49028D01*
X62714Y-49000D01*
X62728Y-48985D01*
X62757Y-48971D01*
X63114Y-49071D02*
X63114Y-49271D01*
X62985Y-49071D02*
X62985Y-49228D01*
X62999Y-49257D01*
X63028Y-49271D01*
X63071Y-49271D01*
X63099Y-49257D01*
X63114Y-49242D01*
X63357Y-49114D02*
X63257Y-49114D01*
X63257Y-49271D02*
X63257Y-48971D01*
X63400Y-48971D01*
G54D16*
X63308Y-51051D02*
X63765Y-51051D01*
X63537Y-51280D02*
X63537Y-50823D01*
G54D11*
X56427Y-65791D02*
X56439Y-65803D01*
X56451Y-65839D01*
X56451Y-65863D01*
X56439Y-65898D01*
X56415Y-65922D01*
X56391Y-65934D01*
X56344Y-65946D01*
X56308Y-65946D01*
X56260Y-65934D01*
X56236Y-65922D01*
X56213Y-65898D01*
X56201Y-65863D01*
X56201Y-65839D01*
X56213Y-65803D01*
X56225Y-65791D01*
X56201Y-65708D02*
X56201Y-65553D01*
X56296Y-65636D01*
X56296Y-65601D01*
X56308Y-65577D01*
X56320Y-65565D01*
X56344Y-65553D01*
X56403Y-65553D01*
X56427Y-65565D01*
X56439Y-65577D01*
X56451Y-65601D01*
X56451Y-65672D01*
X56439Y-65696D01*
X56427Y-65708D01*
X56551Y-66160D02*
X56551Y-66136D01*
X56563Y-66113D01*
X56575Y-66101D01*
X56598Y-66089D01*
X56646Y-66077D01*
X56705Y-66077D01*
X56753Y-66089D01*
X56777Y-66101D01*
X56789Y-66113D01*
X56801Y-66136D01*
X56801Y-66160D01*
X56789Y-66184D01*
X56777Y-66196D01*
X56753Y-66208D01*
X56705Y-66220D01*
X56646Y-66220D01*
X56598Y-66208D01*
X56575Y-66196D01*
X56563Y-66184D01*
X56551Y-66160D01*
X56777Y-65970D02*
X56789Y-65958D01*
X56801Y-65970D01*
X56789Y-65982D01*
X56777Y-65970D01*
X56801Y-65970D01*
X56801Y-65720D02*
X56801Y-65863D01*
X56801Y-65791D02*
X56551Y-65791D01*
X56586Y-65815D01*
X56610Y-65839D01*
X56622Y-65863D01*
X56634Y-65505D02*
X56801Y-65505D01*
X56634Y-65613D02*
X56765Y-65613D01*
X56789Y-65601D01*
X56801Y-65577D01*
X56801Y-65541D01*
X56789Y-65517D01*
X56777Y-65505D01*
X56670Y-65303D02*
X56670Y-65386D01*
X56801Y-65386D02*
X56551Y-65386D01*
X56551Y-65267D01*
X56177Y-50791D02*
X56189Y-50803D01*
X56201Y-50839D01*
X56201Y-50863D01*
X56189Y-50898D01*
X56165Y-50922D01*
X56141Y-50934D01*
X56094Y-50946D01*
X56058Y-50946D01*
X56010Y-50934D01*
X55986Y-50922D01*
X55963Y-50898D01*
X55951Y-50863D01*
X55951Y-50839D01*
X55963Y-50803D01*
X55975Y-50791D01*
X55951Y-50708D02*
X55951Y-50541D01*
X56201Y-50648D01*
X56301Y-51160D02*
X56301Y-51136D01*
X56313Y-51113D01*
X56325Y-51101D01*
X56348Y-51089D01*
X56396Y-51077D01*
X56455Y-51077D01*
X56503Y-51089D01*
X56527Y-51101D01*
X56539Y-51113D01*
X56551Y-51136D01*
X56551Y-51160D01*
X56539Y-51184D01*
X56527Y-51196D01*
X56503Y-51208D01*
X56455Y-51220D01*
X56396Y-51220D01*
X56348Y-51208D01*
X56325Y-51196D01*
X56313Y-51184D01*
X56301Y-51160D01*
X56527Y-50970D02*
X56539Y-50958D01*
X56551Y-50970D01*
X56539Y-50982D01*
X56527Y-50970D01*
X56551Y-50970D01*
X56551Y-50720D02*
X56551Y-50863D01*
X56551Y-50791D02*
X56301Y-50791D01*
X56336Y-50815D01*
X56360Y-50839D01*
X56372Y-50863D01*
X56384Y-50505D02*
X56551Y-50505D01*
X56384Y-50613D02*
X56515Y-50613D01*
X56539Y-50601D01*
X56551Y-50577D01*
X56551Y-50541D01*
X56539Y-50517D01*
X56527Y-50505D01*
X56420Y-50303D02*
X56420Y-50386D01*
X56551Y-50386D02*
X56301Y-50386D01*
X56301Y-50267D01*
X50208Y-59527D02*
X50196Y-59539D01*
X50160Y-59551D01*
X50136Y-59551D01*
X50101Y-59539D01*
X50077Y-59515D01*
X50065Y-59491D01*
X50053Y-59444D01*
X50053Y-59408D01*
X50065Y-59360D01*
X50077Y-59336D01*
X50101Y-59313D01*
X50136Y-59301D01*
X50160Y-59301D01*
X50196Y-59313D01*
X50208Y-59325D01*
X50422Y-59384D02*
X50422Y-59551D01*
X50363Y-59289D02*
X50303Y-59467D01*
X50458Y-59467D01*
X49839Y-58951D02*
X49863Y-58951D01*
X49886Y-58963D01*
X49898Y-58975D01*
X49910Y-58998D01*
X49922Y-59046D01*
X49922Y-59105D01*
X49910Y-59153D01*
X49898Y-59177D01*
X49886Y-59189D01*
X49863Y-59201D01*
X49839Y-59201D01*
X49815Y-59189D01*
X49803Y-59177D01*
X49791Y-59153D01*
X49779Y-59105D01*
X49779Y-59046D01*
X49791Y-58998D01*
X49803Y-58975D01*
X49815Y-58963D01*
X49839Y-58951D01*
X50029Y-59177D02*
X50041Y-59189D01*
X50029Y-59201D01*
X50017Y-59189D01*
X50029Y-59177D01*
X50029Y-59201D01*
X50279Y-59201D02*
X50136Y-59201D01*
X50208Y-59201D02*
X50208Y-58951D01*
X50184Y-58986D01*
X50160Y-59010D01*
X50136Y-59022D01*
X50494Y-59034D02*
X50494Y-59201D01*
X50386Y-59034D02*
X50386Y-59165D01*
X50398Y-59189D01*
X50422Y-59201D01*
X50458Y-59201D01*
X50482Y-59189D01*
X50494Y-59177D01*
X50696Y-59070D02*
X50613Y-59070D01*
X50613Y-59201D02*
X50613Y-58951D01*
X50732Y-58951D01*
G54D12*
X54821Y-65978D02*
X55064Y-65978D01*
X55092Y-65964D01*
X55107Y-65950D01*
X55121Y-65921D01*
X55121Y-65864D01*
X55107Y-65835D01*
X55092Y-65821D01*
X55064Y-65807D01*
X54821Y-65807D01*
X54850Y-65678D02*
X54835Y-65664D01*
X54821Y-65635D01*
X54821Y-65564D01*
X54835Y-65535D01*
X54850Y-65521D01*
X54878Y-65507D01*
X54907Y-65507D01*
X54950Y-65521D01*
X55121Y-65692D01*
X55121Y-65507D01*
X52742Y-65871D02*
X52600Y-65871D01*
X52600Y-65571D01*
X52842Y-65871D02*
X52842Y-65571D01*
X52942Y-65785D01*
X53042Y-65571D01*
X53042Y-65871D01*
X53157Y-65571D02*
X53342Y-65571D01*
X53242Y-65685D01*
X53285Y-65685D01*
X53314Y-65700D01*
X53328Y-65714D01*
X53342Y-65742D01*
X53342Y-65814D01*
X53328Y-65842D01*
X53314Y-65857D01*
X53285Y-65871D01*
X53200Y-65871D01*
X53171Y-65857D01*
X53157Y-65842D01*
X53614Y-65571D02*
X53471Y-65571D01*
X53457Y-65714D01*
X53471Y-65700D01*
X53500Y-65685D01*
X53571Y-65685D01*
X53600Y-65700D01*
X53614Y-65714D01*
X53628Y-65742D01*
X53628Y-65814D01*
X53614Y-65842D01*
X53600Y-65857D01*
X53571Y-65871D01*
X53500Y-65871D01*
X53471Y-65857D01*
X53457Y-65842D01*
X53800Y-65700D02*
X53771Y-65685D01*
X53757Y-65671D01*
X53742Y-65642D01*
X53742Y-65628D01*
X53757Y-65600D01*
X53771Y-65585D01*
X53800Y-65571D01*
X53857Y-65571D01*
X53885Y-65585D01*
X53900Y-65600D01*
X53914Y-65628D01*
X53914Y-65642D01*
X53900Y-65671D01*
X53885Y-65685D01*
X53857Y-65700D01*
X53800Y-65700D01*
X53771Y-65714D01*
X53757Y-65728D01*
X53742Y-65757D01*
X53742Y-65814D01*
X53757Y-65842D01*
X53771Y-65857D01*
X53800Y-65871D01*
X53857Y-65871D01*
X53885Y-65857D01*
X53900Y-65842D01*
X53914Y-65814D01*
X53914Y-65757D01*
X53900Y-65728D01*
X53885Y-65714D01*
X53857Y-65700D01*
X50021Y-57571D02*
X50021Y-57814D01*
X50035Y-57842D01*
X50050Y-57857D01*
X50078Y-57871D01*
X50135Y-57871D01*
X50164Y-57857D01*
X50178Y-57842D01*
X50192Y-57814D01*
X50192Y-57571D01*
X50307Y-57571D02*
X50492Y-57571D01*
X50392Y-57685D01*
X50435Y-57685D01*
X50464Y-57700D01*
X50478Y-57714D01*
X50492Y-57742D01*
X50492Y-57814D01*
X50478Y-57842D01*
X50464Y-57857D01*
X50435Y-57871D01*
X50350Y-57871D01*
X50321Y-57857D01*
X50307Y-57842D01*
X50371Y-56971D02*
X50071Y-56971D01*
X50285Y-56871D01*
X50071Y-56771D01*
X50371Y-56771D01*
X50342Y-56457D02*
X50357Y-56471D01*
X50371Y-56514D01*
X50371Y-56542D01*
X50357Y-56585D01*
X50328Y-56614D01*
X50300Y-56628D01*
X50242Y-56642D01*
X50200Y-56642D01*
X50142Y-56628D01*
X50114Y-56614D01*
X50085Y-56585D01*
X50071Y-56542D01*
X50071Y-56514D01*
X50085Y-56471D01*
X50100Y-56457D01*
X50371Y-56328D02*
X50071Y-56328D01*
X50071Y-56214D01*
X50085Y-56185D01*
X50100Y-56171D01*
X50128Y-56157D01*
X50171Y-56157D01*
X50200Y-56171D01*
X50214Y-56185D01*
X50228Y-56214D01*
X50228Y-56328D01*
X50171Y-55899D02*
X50371Y-55899D01*
X50057Y-55971D02*
X50271Y-56042D01*
X50271Y-55857D01*
X50200Y-55699D02*
X50185Y-55728D01*
X50171Y-55742D01*
X50142Y-55757D01*
X50128Y-55757D01*
X50100Y-55742D01*
X50085Y-55728D01*
X50071Y-55699D01*
X50071Y-55642D01*
X50085Y-55614D01*
X50100Y-55599D01*
X50128Y-55585D01*
X50142Y-55585D01*
X50171Y-55599D01*
X50185Y-55614D01*
X50200Y-55642D01*
X50200Y-55699D01*
X50214Y-55728D01*
X50228Y-55742D01*
X50257Y-55757D01*
X50314Y-55757D01*
X50342Y-55742D01*
X50357Y-55728D01*
X50371Y-55699D01*
X50371Y-55642D01*
X50357Y-55614D01*
X50342Y-55599D01*
X50314Y-55585D01*
X50257Y-55585D01*
X50228Y-55599D01*
X50214Y-55614D01*
X50200Y-55642D01*
X50071Y-55400D02*
X50071Y-55371D01*
X50085Y-55342D01*
X50100Y-55328D01*
X50128Y-55314D01*
X50185Y-55300D01*
X50257Y-55300D01*
X50314Y-55314D01*
X50342Y-55328D01*
X50357Y-55342D01*
X50371Y-55371D01*
X50371Y-55400D01*
X50357Y-55428D01*
X50342Y-55442D01*
X50314Y-55457D01*
X50257Y-55471D01*
X50185Y-55471D01*
X50128Y-55457D01*
X50100Y-55442D01*
X50085Y-55428D01*
X50071Y-55400D01*
X50371Y-55014D02*
X50371Y-55185D01*
X50371Y-55100D02*
X50071Y-55100D01*
X50114Y-55128D01*
X50142Y-55157D01*
X50157Y-55185D01*
X54871Y-51042D02*
X54571Y-51042D01*
X54842Y-50728D02*
X54857Y-50742D01*
X54871Y-50785D01*
X54871Y-50814D01*
X54857Y-50857D01*
X54828Y-50885D01*
X54800Y-50899D01*
X54742Y-50914D01*
X54700Y-50914D01*
X54642Y-50899D01*
X54614Y-50885D01*
X54585Y-50857D01*
X54571Y-50814D01*
X54571Y-50785D01*
X54585Y-50742D01*
X54600Y-50728D01*
X54871Y-50442D02*
X54871Y-50614D01*
X54871Y-50528D02*
X54571Y-50528D01*
X54614Y-50557D01*
X54642Y-50585D01*
X54657Y-50614D01*
X52057Y-50785D02*
X52200Y-50785D01*
X52028Y-50871D02*
X52128Y-50571D01*
X52228Y-50871D01*
X52285Y-50571D02*
X52457Y-50571D01*
X52371Y-50871D02*
X52371Y-50571D01*
X52514Y-50571D02*
X52685Y-50571D01*
X52600Y-50871D02*
X52600Y-50571D01*
X52785Y-50871D02*
X52785Y-50571D01*
X52928Y-50871D02*
X52928Y-50571D01*
X53100Y-50871D01*
X53100Y-50571D01*
X53300Y-50728D02*
X53300Y-50871D01*
X53200Y-50571D02*
X53300Y-50728D01*
X53400Y-50571D01*
X53542Y-50700D02*
X53514Y-50685D01*
X53500Y-50671D01*
X53485Y-50642D01*
X53485Y-50628D01*
X53500Y-50600D01*
X53514Y-50585D01*
X53542Y-50571D01*
X53600Y-50571D01*
X53628Y-50585D01*
X53642Y-50600D01*
X53657Y-50628D01*
X53657Y-50642D01*
X53642Y-50671D01*
X53628Y-50685D01*
X53600Y-50700D01*
X53542Y-50700D01*
X53514Y-50714D01*
X53500Y-50728D01*
X53485Y-50757D01*
X53485Y-50814D01*
X53500Y-50842D01*
X53514Y-50857D01*
X53542Y-50871D01*
X53600Y-50871D01*
X53628Y-50857D01*
X53642Y-50842D01*
X53657Y-50814D01*
X53657Y-50757D01*
X53642Y-50728D01*
X53628Y-50714D01*
X53600Y-50700D01*
X53928Y-50571D02*
X53785Y-50571D01*
X53771Y-50714D01*
X53785Y-50700D01*
X53814Y-50685D01*
X53885Y-50685D01*
X53914Y-50700D01*
X53928Y-50714D01*
X53942Y-50742D01*
X53942Y-50814D01*
X53928Y-50842D01*
X53914Y-50857D01*
X53885Y-50871D01*
X53814Y-50871D01*
X53785Y-50857D01*
X53771Y-50842D01*
G54D13*
X65478Y-63111D02*
X65478Y-62711D01*
X65478Y-62902D02*
X65707Y-62902D01*
X65707Y-63111D02*
X65707Y-62711D01*
X65954Y-62711D02*
X65954Y-62807D01*
X65859Y-62769D02*
X65954Y-62807D01*
X66050Y-62769D01*
X65897Y-62883D02*
X65954Y-62807D01*
X66011Y-62883D01*
X66259Y-62711D02*
X66259Y-62807D01*
X66164Y-62769D02*
X66259Y-62807D01*
X66354Y-62769D01*
X66202Y-62883D02*
X66259Y-62807D01*
X66316Y-62883D01*
X66564Y-62711D02*
X66564Y-62807D01*
X66469Y-62769D02*
X66564Y-62807D01*
X66659Y-62769D01*
X66507Y-62883D02*
X66564Y-62807D01*
X66621Y-62883D01*
G54D11*
X58001Y-62730D02*
X58001Y-62850D01*
X58120Y-62861D01*
X58108Y-62850D01*
X58096Y-62826D01*
X58096Y-62766D01*
X58108Y-62742D01*
X58120Y-62730D01*
X58144Y-62719D01*
X58203Y-62719D01*
X58227Y-62730D01*
X58239Y-62742D01*
X58251Y-62766D01*
X58251Y-62826D01*
X58239Y-62850D01*
X58227Y-62861D01*
X58001Y-62635D02*
X58001Y-62480D01*
X58096Y-62564D01*
X58096Y-62528D01*
X58108Y-62504D01*
X58120Y-62492D01*
X58144Y-62480D01*
X58203Y-62480D01*
X58227Y-62492D01*
X58239Y-62504D01*
X58251Y-62528D01*
X58251Y-62600D01*
X58239Y-62623D01*
X58227Y-62635D01*
X58001Y-62326D02*
X58001Y-62302D01*
X58013Y-62278D01*
X58025Y-62266D01*
X58048Y-62254D01*
X58096Y-62242D01*
X58155Y-62242D01*
X58203Y-62254D01*
X58227Y-62266D01*
X58239Y-62278D01*
X58251Y-62302D01*
X58251Y-62326D01*
X58239Y-62350D01*
X58227Y-62361D01*
X58203Y-62373D01*
X58155Y-62385D01*
X58096Y-62385D01*
X58048Y-62373D01*
X58025Y-62361D01*
X58013Y-62350D01*
X58001Y-62326D01*
X58001Y-62088D02*
X58001Y-62064D01*
X58013Y-62040D01*
X58025Y-62028D01*
X58048Y-62016D01*
X58096Y-62004D01*
X58155Y-62004D01*
X58203Y-62016D01*
X58227Y-62028D01*
X58239Y-62040D01*
X58251Y-62064D01*
X58251Y-62088D01*
X58239Y-62111D01*
X58227Y-62123D01*
X58203Y-62135D01*
X58155Y-62147D01*
X58096Y-62147D01*
X58048Y-62135D01*
X58025Y-62123D01*
X58013Y-62111D01*
X58001Y-62088D01*
X58001Y-61850D02*
X58001Y-61826D01*
X58013Y-61802D01*
X58025Y-61790D01*
X58048Y-61778D01*
X58096Y-61766D01*
X58155Y-61766D01*
X58203Y-61778D01*
X58227Y-61790D01*
X58239Y-61802D01*
X58251Y-61826D01*
X58251Y-61850D01*
X58239Y-61873D01*
X58227Y-61885D01*
X58203Y-61897D01*
X58155Y-61909D01*
X58096Y-61909D01*
X58048Y-61897D01*
X58025Y-61885D01*
X58013Y-61873D01*
X58001Y-61850D01*
X58025Y-61671D02*
X58013Y-61659D01*
X58001Y-61635D01*
X58001Y-61576D01*
X58013Y-61552D01*
X58025Y-61540D01*
X58048Y-61528D01*
X58072Y-61528D01*
X58108Y-61540D01*
X58251Y-61683D01*
X58251Y-61528D01*
X58120Y-61338D02*
X58132Y-61302D01*
X58144Y-61290D01*
X58167Y-61278D01*
X58203Y-61278D01*
X58227Y-61290D01*
X58239Y-61302D01*
X58251Y-61326D01*
X58251Y-61421D01*
X58001Y-61421D01*
X58001Y-61338D01*
X58013Y-61314D01*
X58025Y-61302D01*
X58048Y-61290D01*
X58072Y-61290D01*
X58096Y-61302D01*
X58108Y-61314D01*
X58120Y-61338D01*
X58120Y-61421D01*
X58001Y-61123D02*
X58001Y-61100D01*
X58013Y-61076D01*
X58025Y-61064D01*
X58048Y-61052D01*
X58096Y-61040D01*
X58155Y-61040D01*
X58203Y-61052D01*
X58227Y-61064D01*
X58239Y-61076D01*
X58251Y-61100D01*
X58251Y-61123D01*
X58239Y-61147D01*
X58227Y-61159D01*
X58203Y-61171D01*
X58155Y-61183D01*
X58096Y-61183D01*
X58048Y-61171D01*
X58025Y-61159D01*
X58013Y-61147D01*
X58001Y-61123D01*
X58025Y-60945D02*
X58013Y-60933D01*
X58001Y-60909D01*
X58001Y-60850D01*
X58013Y-60826D01*
X58025Y-60814D01*
X58048Y-60802D01*
X58072Y-60802D01*
X58108Y-60814D01*
X58251Y-60957D01*
X58251Y-60802D01*
X58001Y-60576D02*
X58001Y-60695D01*
X58120Y-60707D01*
X58108Y-60695D01*
X58096Y-60671D01*
X58096Y-60611D01*
X58108Y-60588D01*
X58120Y-60576D01*
X58144Y-60564D01*
X58203Y-60564D01*
X58227Y-60576D01*
X58239Y-60588D01*
X58251Y-60611D01*
X58251Y-60671D01*
X58239Y-60695D01*
X58227Y-60707D01*
X58001Y-60409D02*
X58001Y-60385D01*
X58013Y-60361D01*
X58025Y-60350D01*
X58048Y-60338D01*
X58096Y-60326D01*
X58155Y-60326D01*
X58203Y-60338D01*
X58227Y-60350D01*
X58239Y-60361D01*
X58251Y-60385D01*
X58251Y-60409D01*
X58239Y-60433D01*
X58227Y-60445D01*
X58203Y-60457D01*
X58155Y-60469D01*
X58096Y-60469D01*
X58048Y-60457D01*
X58025Y-60445D01*
X58013Y-60433D01*
X58001Y-60409D01*
X58001Y-60171D02*
X58001Y-60147D01*
X58013Y-60123D01*
X58025Y-60111D01*
X58048Y-60100D01*
X58096Y-60088D01*
X58155Y-60088D01*
X58203Y-60100D01*
X58227Y-60111D01*
X58239Y-60123D01*
X58251Y-60147D01*
X58251Y-60171D01*
X58239Y-60195D01*
X58227Y-60207D01*
X58203Y-60219D01*
X58155Y-60230D01*
X58096Y-60230D01*
X58048Y-60219D01*
X58025Y-60207D01*
X58013Y-60195D01*
X58001Y-60171D01*
X58013Y-59849D02*
X58001Y-59873D01*
X58001Y-59909D01*
X58013Y-59945D01*
X58036Y-59969D01*
X58060Y-59980D01*
X58108Y-59992D01*
X58144Y-59992D01*
X58191Y-59980D01*
X58215Y-59969D01*
X58239Y-59945D01*
X58251Y-59909D01*
X58251Y-59885D01*
X58239Y-59849D01*
X58227Y-59838D01*
X58144Y-59838D01*
X58144Y-59885D01*
X58179Y-56797D02*
X58179Y-56678D01*
X58251Y-56821D02*
X58001Y-56738D01*
X58251Y-56654D01*
X58251Y-56464D02*
X58120Y-56464D01*
X58096Y-56476D01*
X58084Y-56500D01*
X58084Y-56547D01*
X58096Y-56571D01*
X58239Y-56464D02*
X58251Y-56488D01*
X58251Y-56547D01*
X58239Y-56571D01*
X58215Y-56583D01*
X58191Y-56583D01*
X58167Y-56571D01*
X58155Y-56547D01*
X58155Y-56488D01*
X58144Y-56464D01*
X58084Y-56369D02*
X58251Y-56309D01*
X58084Y-56250D01*
X58251Y-56154D02*
X58084Y-56154D01*
X58001Y-56154D02*
X58013Y-56166D01*
X58025Y-56154D01*
X58013Y-56142D01*
X58001Y-56154D01*
X58025Y-56154D01*
X58251Y-55928D02*
X58001Y-55928D01*
X58239Y-55928D02*
X58251Y-55952D01*
X58251Y-56000D01*
X58239Y-56023D01*
X58227Y-56035D01*
X58203Y-56047D01*
X58132Y-56047D01*
X58108Y-56035D01*
X58096Y-56023D01*
X58084Y-56000D01*
X58084Y-55952D01*
X58096Y-55928D01*
X58001Y-55654D02*
X58001Y-55511D01*
X58251Y-55583D02*
X58001Y-55583D01*
X58251Y-55428D02*
X58001Y-55428D01*
X58251Y-55321D02*
X58120Y-55321D01*
X58096Y-55333D01*
X58084Y-55357D01*
X58084Y-55392D01*
X58096Y-55416D01*
X58108Y-55428D01*
X58239Y-55107D02*
X58251Y-55130D01*
X58251Y-55178D01*
X58239Y-55202D01*
X58215Y-55214D01*
X58120Y-55214D01*
X58096Y-55202D01*
X58084Y-55178D01*
X58084Y-55130D01*
X58096Y-55107D01*
X58120Y-55095D01*
X58144Y-55095D01*
X58167Y-55214D01*
X58251Y-54988D02*
X58084Y-54988D01*
X58132Y-54988D02*
X58108Y-54976D01*
X58096Y-54964D01*
X58084Y-54940D01*
X58084Y-54916D01*
X58251Y-54833D02*
X58084Y-54833D01*
X58108Y-54833D02*
X58096Y-54821D01*
X58084Y-54797D01*
X58084Y-54761D01*
X58096Y-54738D01*
X58120Y-54726D01*
X58251Y-54726D01*
X58120Y-54726D02*
X58096Y-54714D01*
X58084Y-54690D01*
X58084Y-54654D01*
X58096Y-54630D01*
X58120Y-54619D01*
X58251Y-54619D01*
X58251Y-54392D02*
X58120Y-54392D01*
X58096Y-54404D01*
X58084Y-54428D01*
X58084Y-54476D01*
X58096Y-54499D01*
X58239Y-54392D02*
X58251Y-54416D01*
X58251Y-54476D01*
X58239Y-54499D01*
X58215Y-54511D01*
X58191Y-54511D01*
X58167Y-54499D01*
X58155Y-54476D01*
X58155Y-54416D01*
X58144Y-54392D01*
X58251Y-54238D02*
X58239Y-54261D01*
X58215Y-54273D01*
X58001Y-54273D01*
X58251Y-54107D02*
X58239Y-54130D01*
X58215Y-54142D01*
X58001Y-54142D01*
X58251Y-53976D02*
X58239Y-53999D01*
X58227Y-54011D01*
X58203Y-54023D01*
X58132Y-54023D01*
X58108Y-54011D01*
X58096Y-53999D01*
X58084Y-53976D01*
X58084Y-53940D01*
X58096Y-53916D01*
X58108Y-53904D01*
X58132Y-53892D01*
X58203Y-53892D01*
X58227Y-53904D01*
X58239Y-53916D01*
X58251Y-53940D01*
X58251Y-53976D01*
X58084Y-53809D02*
X58251Y-53749D01*
X58084Y-53690D02*
X58251Y-53749D01*
X58310Y-53773D01*
X58322Y-53785D01*
X58334Y-53809D01*
G54D12*
X61778Y-65121D02*
X61778Y-64821D01*
X61892Y-64821D01*
X61921Y-64835D01*
X61935Y-64850D01*
X61950Y-64878D01*
X61950Y-64921D01*
X61935Y-64950D01*
X61921Y-64964D01*
X61892Y-64978D01*
X61778Y-64978D01*
X62064Y-64850D02*
X62078Y-64835D01*
X62107Y-64821D01*
X62178Y-64821D01*
X62207Y-64835D01*
X62221Y-64850D01*
X62235Y-64878D01*
X62235Y-64907D01*
X62221Y-64950D01*
X62050Y-65121D01*
X62235Y-65121D01*
X58778Y-51621D02*
X58778Y-51321D01*
X58892Y-51321D01*
X58921Y-51335D01*
X58935Y-51350D01*
X58950Y-51378D01*
X58950Y-51421D01*
X58935Y-51450D01*
X58921Y-51464D01*
X58892Y-51478D01*
X58778Y-51478D01*
X59235Y-51621D02*
X59064Y-51621D01*
X59150Y-51621D02*
X59150Y-51321D01*
X59121Y-51364D01*
X59092Y-51392D01*
X59064Y-51407D01*
G54D11*
X61839Y-56177D02*
X61827Y-56189D01*
X61791Y-56201D01*
X61767Y-56201D01*
X61732Y-56189D01*
X61708Y-56165D01*
X61696Y-56141D01*
X61684Y-56094D01*
X61684Y-56058D01*
X61696Y-56010D01*
X61708Y-55986D01*
X61732Y-55963D01*
X61767Y-55951D01*
X61791Y-55951D01*
X61827Y-55963D01*
X61839Y-55975D01*
X62077Y-56201D02*
X61934Y-56201D01*
X62005Y-56201D02*
X62005Y-55951D01*
X61982Y-55986D01*
X61958Y-56010D01*
X61934Y-56022D01*
X62232Y-55951D02*
X62255Y-55951D01*
X62279Y-55963D01*
X62291Y-55975D01*
X62303Y-55998D01*
X62315Y-56046D01*
X62315Y-56105D01*
X62303Y-56153D01*
X62291Y-56177D01*
X62279Y-56189D01*
X62255Y-56201D01*
X62232Y-56201D01*
X62208Y-56189D01*
X62196Y-56177D01*
X62184Y-56153D01*
X62172Y-56105D01*
X62172Y-56046D01*
X62184Y-55998D01*
X62196Y-55975D01*
X62208Y-55963D01*
X62232Y-55951D01*
X61589Y-56301D02*
X61613Y-56301D01*
X61636Y-56313D01*
X61648Y-56325D01*
X61660Y-56348D01*
X61672Y-56396D01*
X61672Y-56455D01*
X61660Y-56503D01*
X61648Y-56527D01*
X61636Y-56539D01*
X61613Y-56551D01*
X61589Y-56551D01*
X61565Y-56539D01*
X61553Y-56527D01*
X61541Y-56503D01*
X61529Y-56455D01*
X61529Y-56396D01*
X61541Y-56348D01*
X61553Y-56325D01*
X61565Y-56313D01*
X61589Y-56301D01*
X61779Y-56527D02*
X61791Y-56539D01*
X61779Y-56551D01*
X61767Y-56539D01*
X61779Y-56527D01*
X61779Y-56551D01*
X62029Y-56551D02*
X61886Y-56551D01*
X61958Y-56551D02*
X61958Y-56301D01*
X61934Y-56336D01*
X61910Y-56360D01*
X61886Y-56372D01*
X62244Y-56384D02*
X62244Y-56551D01*
X62136Y-56384D02*
X62136Y-56515D01*
X62148Y-56539D01*
X62172Y-56551D01*
X62208Y-56551D01*
X62232Y-56539D01*
X62244Y-56527D01*
X62446Y-56420D02*
X62363Y-56420D01*
X62363Y-56551D02*
X62363Y-56301D01*
X62482Y-56301D01*
X62527Y-62291D02*
X62539Y-62303D01*
X62551Y-62339D01*
X62551Y-62363D01*
X62539Y-62398D01*
X62515Y-62422D01*
X62491Y-62434D01*
X62444Y-62446D01*
X62408Y-62446D01*
X62360Y-62434D01*
X62336Y-62422D01*
X62313Y-62398D01*
X62301Y-62363D01*
X62301Y-62339D01*
X62313Y-62303D01*
X62325Y-62291D01*
X62408Y-62148D02*
X62396Y-62172D01*
X62384Y-62184D01*
X62360Y-62196D01*
X62348Y-62196D01*
X62325Y-62184D01*
X62313Y-62172D01*
X62301Y-62148D01*
X62301Y-62101D01*
X62313Y-62077D01*
X62325Y-62065D01*
X62348Y-62053D01*
X62360Y-62053D01*
X62384Y-62065D01*
X62396Y-62077D01*
X62408Y-62101D01*
X62408Y-62148D01*
X62420Y-62172D01*
X62432Y-62184D01*
X62455Y-62196D01*
X62503Y-62196D01*
X62527Y-62184D01*
X62539Y-62172D01*
X62551Y-62148D01*
X62551Y-62101D01*
X62539Y-62077D01*
X62527Y-62065D01*
X62503Y-62053D01*
X62455Y-62053D01*
X62432Y-62065D01*
X62420Y-62077D01*
X62408Y-62101D01*
X61951Y-62660D02*
X61951Y-62636D01*
X61963Y-62613D01*
X61975Y-62601D01*
X61998Y-62589D01*
X62046Y-62577D01*
X62105Y-62577D01*
X62153Y-62589D01*
X62177Y-62601D01*
X62189Y-62613D01*
X62201Y-62636D01*
X62201Y-62660D01*
X62189Y-62684D01*
X62177Y-62696D01*
X62153Y-62708D01*
X62105Y-62720D01*
X62046Y-62720D01*
X61998Y-62708D01*
X61975Y-62696D01*
X61963Y-62684D01*
X61951Y-62660D01*
X62177Y-62470D02*
X62189Y-62458D01*
X62201Y-62470D01*
X62189Y-62482D01*
X62177Y-62470D01*
X62201Y-62470D01*
X62201Y-62220D02*
X62201Y-62363D01*
X62201Y-62291D02*
X61951Y-62291D01*
X61986Y-62315D01*
X62010Y-62339D01*
X62022Y-62363D01*
X62034Y-62005D02*
X62201Y-62005D01*
X62034Y-62113D02*
X62165Y-62113D01*
X62189Y-62101D01*
X62201Y-62077D01*
X62201Y-62041D01*
X62189Y-62017D01*
X62177Y-62005D01*
X62070Y-61803D02*
X62070Y-61886D01*
X62201Y-61886D02*
X61951Y-61886D01*
X61951Y-61767D01*
X60527Y-62291D02*
X60539Y-62303D01*
X60551Y-62339D01*
X60551Y-62363D01*
X60539Y-62398D01*
X60515Y-62422D01*
X60491Y-62434D01*
X60444Y-62446D01*
X60408Y-62446D01*
X60360Y-62434D01*
X60336Y-62422D01*
X60313Y-62398D01*
X60301Y-62363D01*
X60301Y-62339D01*
X60313Y-62303D01*
X60325Y-62291D01*
X60551Y-62172D02*
X60551Y-62125D01*
X60539Y-62101D01*
X60527Y-62089D01*
X60491Y-62065D01*
X60444Y-62053D01*
X60348Y-62053D01*
X60325Y-62065D01*
X60313Y-62077D01*
X60301Y-62101D01*
X60301Y-62148D01*
X60313Y-62172D01*
X60325Y-62184D01*
X60348Y-62196D01*
X60408Y-62196D01*
X60432Y-62184D01*
X60444Y-62172D01*
X60455Y-62148D01*
X60455Y-62101D01*
X60444Y-62077D01*
X60432Y-62065D01*
X60408Y-62053D01*
X59951Y-62660D02*
X59951Y-62636D01*
X59963Y-62613D01*
X59975Y-62601D01*
X59998Y-62589D01*
X60046Y-62577D01*
X60105Y-62577D01*
X60153Y-62589D01*
X60177Y-62601D01*
X60189Y-62613D01*
X60201Y-62636D01*
X60201Y-62660D01*
X60189Y-62684D01*
X60177Y-62696D01*
X60153Y-62708D01*
X60105Y-62720D01*
X60046Y-62720D01*
X59998Y-62708D01*
X59975Y-62696D01*
X59963Y-62684D01*
X59951Y-62660D01*
X60177Y-62470D02*
X60189Y-62458D01*
X60201Y-62470D01*
X60189Y-62482D01*
X60177Y-62470D01*
X60201Y-62470D01*
X60201Y-62220D02*
X60201Y-62363D01*
X60201Y-62291D02*
X59951Y-62291D01*
X59986Y-62315D01*
X60010Y-62339D01*
X60022Y-62363D01*
X60034Y-62005D02*
X60201Y-62005D01*
X60034Y-62113D02*
X60165Y-62113D01*
X60189Y-62101D01*
X60201Y-62077D01*
X60201Y-62041D01*
X60189Y-62017D01*
X60177Y-62005D01*
X60070Y-61803D02*
X60070Y-61886D01*
X60201Y-61886D02*
X59951Y-61886D01*
X59951Y-61767D01*
X61839Y-54927D02*
X61827Y-54939D01*
X61791Y-54951D01*
X61767Y-54951D01*
X61732Y-54939D01*
X61708Y-54915D01*
X61696Y-54891D01*
X61684Y-54844D01*
X61684Y-54808D01*
X61696Y-54760D01*
X61708Y-54736D01*
X61732Y-54713D01*
X61767Y-54701D01*
X61791Y-54701D01*
X61827Y-54713D01*
X61839Y-54725D01*
X62077Y-54951D02*
X61934Y-54951D01*
X62005Y-54951D02*
X62005Y-54701D01*
X61982Y-54736D01*
X61958Y-54760D01*
X61934Y-54772D01*
X62315Y-54951D02*
X62172Y-54951D01*
X62244Y-54951D02*
X62244Y-54701D01*
X62220Y-54736D01*
X62196Y-54760D01*
X62172Y-54772D01*
X61589Y-55051D02*
X61613Y-55051D01*
X61636Y-55063D01*
X61648Y-55075D01*
X61660Y-55098D01*
X61672Y-55146D01*
X61672Y-55205D01*
X61660Y-55253D01*
X61648Y-55277D01*
X61636Y-55289D01*
X61613Y-55301D01*
X61589Y-55301D01*
X61565Y-55289D01*
X61553Y-55277D01*
X61541Y-55253D01*
X61529Y-55205D01*
X61529Y-55146D01*
X61541Y-55098D01*
X61553Y-55075D01*
X61565Y-55063D01*
X61589Y-55051D01*
X61779Y-55277D02*
X61791Y-55289D01*
X61779Y-55301D01*
X61767Y-55289D01*
X61779Y-55277D01*
X61779Y-55301D01*
X62029Y-55301D02*
X61886Y-55301D01*
X61958Y-55301D02*
X61958Y-55051D01*
X61934Y-55086D01*
X61910Y-55110D01*
X61886Y-55122D01*
X62244Y-55134D02*
X62244Y-55301D01*
X62136Y-55134D02*
X62136Y-55265D01*
X62148Y-55289D01*
X62172Y-55301D01*
X62208Y-55301D01*
X62232Y-55289D01*
X62244Y-55277D01*
X62446Y-55170D02*
X62363Y-55170D01*
X62363Y-55301D02*
X62363Y-55051D01*
X62482Y-55051D01*
X58208Y-67177D02*
X58196Y-67189D01*
X58160Y-67201D01*
X58136Y-67201D01*
X58101Y-67189D01*
X58077Y-67165D01*
X58065Y-67141D01*
X58053Y-67094D01*
X58053Y-67058D01*
X58065Y-67010D01*
X58077Y-66986D01*
X58101Y-66963D01*
X58136Y-66951D01*
X58160Y-66951D01*
X58196Y-66963D01*
X58208Y-66975D01*
X58303Y-66975D02*
X58315Y-66963D01*
X58339Y-66951D01*
X58398Y-66951D01*
X58422Y-66963D01*
X58434Y-66975D01*
X58446Y-66998D01*
X58446Y-67022D01*
X58434Y-67058D01*
X58291Y-67201D01*
X58446Y-67201D01*
X58232Y-66001D02*
X58089Y-66001D01*
X58160Y-66001D02*
X58160Y-65751D01*
X58136Y-65786D01*
X58113Y-65810D01*
X58089Y-65822D01*
X58386Y-65751D02*
X58410Y-65751D01*
X58434Y-65763D01*
X58446Y-65775D01*
X58458Y-65798D01*
X58470Y-65846D01*
X58470Y-65905D01*
X58458Y-65953D01*
X58446Y-65977D01*
X58434Y-65989D01*
X58410Y-66001D01*
X58386Y-66001D01*
X58363Y-65989D01*
X58351Y-65977D01*
X58339Y-65953D01*
X58327Y-65905D01*
X58327Y-65846D01*
X58339Y-65798D01*
X58351Y-65775D01*
X58363Y-65763D01*
X58386Y-65751D01*
X58684Y-65834D02*
X58684Y-66001D01*
X58577Y-65834D02*
X58577Y-65965D01*
X58589Y-65989D01*
X58613Y-66001D01*
X58648Y-66001D01*
X58672Y-65989D01*
X58684Y-65977D01*
X58886Y-65870D02*
X58803Y-65870D01*
X58803Y-66001D02*
X58803Y-65751D01*
X58922Y-65751D01*
G54D12*
X58885Y-67107D02*
X59114Y-67107D01*
X59000Y-67221D02*
X59000Y-66992D01*
X59121Y-63850D02*
X58978Y-63950D01*
X59121Y-64021D02*
X58821Y-64021D01*
X58821Y-63907D01*
X58835Y-63878D01*
X58850Y-63864D01*
X58878Y-63850D01*
X58921Y-63850D01*
X58950Y-63864D01*
X58964Y-63878D01*
X58978Y-63907D01*
X58978Y-64021D01*
X58821Y-63750D02*
X58821Y-63564D01*
X58935Y-63664D01*
X58935Y-63621D01*
X58950Y-63592D01*
X58964Y-63578D01*
X58992Y-63564D01*
X59064Y-63564D01*
X59092Y-63578D01*
X59107Y-63592D01*
X59121Y-63621D01*
X59121Y-63707D01*
X59107Y-63735D01*
X59092Y-63750D01*
X58850Y-62571D02*
X58835Y-62557D01*
X58821Y-62528D01*
X58821Y-62457D01*
X58835Y-62428D01*
X58850Y-62414D01*
X58878Y-62400D01*
X58907Y-62400D01*
X58950Y-62414D01*
X59121Y-62585D01*
X59121Y-62400D01*
X58850Y-62285D02*
X58835Y-62271D01*
X58821Y-62242D01*
X58821Y-62171D01*
X58835Y-62142D01*
X58850Y-62128D01*
X58878Y-62114D01*
X58907Y-62114D01*
X58950Y-62128D01*
X59121Y-62300D01*
X59121Y-62114D01*
X58821Y-61928D02*
X58821Y-61900D01*
X58835Y-61871D01*
X58850Y-61857D01*
X58878Y-61842D01*
X58935Y-61828D01*
X59007Y-61828D01*
X59064Y-61842D01*
X59092Y-61857D01*
X59107Y-61871D01*
X59121Y-61900D01*
X59121Y-61928D01*
X59107Y-61957D01*
X59092Y-61971D01*
X59064Y-61985D01*
X59007Y-62000D01*
X58935Y-62000D01*
X58878Y-61985D01*
X58850Y-61971D01*
X58835Y-61957D01*
X58821Y-61928D01*
M02*
