M48
;DRILL file {Pcbnew (2013-07-07 BZR 4022)-stable} date 3/25/2015 9:11:54 PM
;FORMAT={-:-/ absolute / inch / decimal}
FMAT,2
INCH,TZ
T1C0.032
T2C0.040
T3C0.105
T4C0.126
%
G90
G05
M72
T1
X4.875Y-5.5
X4.875Y-5.6
X4.875Y-5.7
X4.875Y-5.8
X4.925Y-5.925
X4.975Y-6.025
X4.975Y-6.425
X5.075Y-6.025
X5.075Y-6.425
X5.125Y-5.925
X5.175Y-5.5
X5.175Y-5.6
X5.175Y-5.7
X5.175Y-5.8
X5.2Y-4.925
X5.2Y-5.225
X5.225Y-6.425
X5.225Y-6.725
X5.3Y-4.925
X5.3Y-5.225
X5.325Y-6.425
X5.325Y-6.725
X5.4Y-4.925
X5.4Y-5.225
X5.425Y-6.425
X5.425Y-6.725
X5.5Y-4.925
X5.5Y-5.225
X5.525Y-6.425
X5.525Y-6.725
X5.625Y-4.975
X5.625Y-5.175
X5.65Y-6.475
X5.65Y-6.675
X5.8Y-6.65
X5.9Y-6.1
X5.9Y-6.5
X5.9Y-6.65
X6.025Y-6.125
X6.025Y-6.325
X6.1Y-5.5
X6.1Y-5.625
X6.15Y-5.325
X6.2061Y-5.025
X6.225Y-6.125
X6.225Y-6.325
X6.25Y-5.325
X6.275Y-4.9758
X6.275Y-5.0742
X6.3Y-5.5
X6.3Y-5.625
X6.3439Y-5.025
T2
X4.875Y-5.325
X4.975Y-5.325
X5.075Y-5.325
X5.8Y-5.
X5.95Y-5.375
X5.95Y-5.475
X5.95Y-5.575
X6.Y-5.
X6.025Y-5.975
X6.1Y-6.65
X6.125Y-5.975
X6.225Y-5.975
X6.3Y-6.65
T3
X5.625Y-5.825
X6.625Y-5.825
T4
X4.925Y-4.975
X4.925Y-6.675
X6.625Y-4.975
X6.625Y-6.675
T0
M30
