G04 (created by PCBNEW (2013-07-07 BZR 4022)-stable) date 3/25/2015 9:11:50 PM*
%MOIN*%
G04 Gerber Fmt 3.4, Leading zero omitted, Abs format*
%FSLAX34Y34*%
G01*
G70*
G90*
G04 APERTURE LIST*
%ADD10C,0.00590551*%
%ADD11R,0.069X0.069*%
%ADD12O,0.069X0.069*%
%ADD13R,0.059X0.059*%
%ADD14O,0.059X0.059*%
%ADD15R,0.06X0.06*%
%ADD16C,0.06*%
%ADD17C,0.059*%
%ADD18C,0.16*%
%ADD19C,0.069*%
%ADD20C,0.23622*%
G04 APERTURE END LIST*
G54D10*
G54D11*
X59500Y-55750D03*
G54D12*
X59500Y-54750D03*
X59500Y-53750D03*
G54D13*
X61500Y-53250D03*
G54D14*
X62500Y-53250D03*
G54D11*
X60250Y-59750D03*
G54D12*
X61250Y-59750D03*
X62250Y-59750D03*
G54D14*
X50750Y-60250D03*
X50750Y-64250D03*
X49750Y-64250D03*
X49750Y-60250D03*
G54D15*
X50750Y-53250D03*
G54D16*
X49750Y-53250D03*
X48750Y-53250D03*
G54D17*
X62750Y-49757D03*
X63438Y-50250D03*
X62061Y-50250D03*
X62750Y-50742D03*
X56500Y-66750D03*
X56500Y-64750D03*
X56250Y-51750D03*
X56250Y-49750D03*
X51250Y-59250D03*
X49250Y-59250D03*
G54D13*
X55250Y-64250D03*
G54D14*
X54250Y-64250D03*
X53250Y-64250D03*
X52250Y-64250D03*
X52250Y-67250D03*
X53250Y-67250D03*
X55250Y-67250D03*
X54250Y-67250D03*
G54D13*
X51750Y-58000D03*
G54D14*
X51750Y-57000D03*
X51750Y-56000D03*
X51750Y-55000D03*
X48750Y-55000D03*
X48750Y-56000D03*
X48750Y-58000D03*
X48750Y-57000D03*
G54D13*
X55000Y-49250D03*
G54D14*
X54000Y-49250D03*
X53000Y-49250D03*
X52000Y-49250D03*
X52000Y-52250D03*
X53000Y-52250D03*
X55000Y-52250D03*
X54000Y-52250D03*
G54D18*
X66250Y-58250D03*
X56250Y-58250D03*
G54D11*
X61000Y-66500D03*
G54D19*
X63000Y-66500D03*
G54D11*
X60000Y-50000D03*
G54D19*
X58000Y-50000D03*
G54D20*
X49250Y-49750D03*
X49250Y-66750D03*
X66250Y-49750D03*
X66250Y-66750D03*
G54D17*
X61000Y-56250D03*
X63000Y-56250D03*
X62250Y-61250D03*
X62250Y-63250D03*
X60250Y-61250D03*
X60250Y-63250D03*
X61000Y-55000D03*
X63000Y-55000D03*
G54D13*
X59000Y-66500D03*
G54D14*
X58000Y-66500D03*
X59000Y-65000D03*
X59000Y-61000D03*
M02*
